<?xml version="1.0" encoding="UTF-8" standalone="no"?>
<svg width="1471px" height="256px" viewBox="0 0 1471 256" version="1.1" xmlns="http://www.w3.org/2000/svg" xmlns:xlink="http://www.w3.org/1999/xlink" xmlns:sketch="http://www.bohemiancoding.com/sketch/ns">
    <!-- Generator: Sketch 3.3.1 (12005) - http://www.bohemiancoding.com/sketch -->
    <title>Slice 1</title>
    <desc>Created with Sketch.</desc>
    <defs></defs>
    <g id="Page-1" stroke="none" stroke-width="1" fill="none" fill-rule="evenodd" sketch:type="MSPage">
        <circle id="Oval" stroke="#110000" stroke-width="11" sketch:type="MSShapeGroup" cx="638.6" cy="64.2" r="29.3"></circle>
        <circle id="Oval" fill="#DD1166" sketch:type="MSShapeGroup" cx="638.6" cy="64.2" r="16.9"></circle>
        <circle id="Oval" stroke="#110000" stroke-width="11" sketch:type="MSShapeGroup" cx="701.5" cy="64.2" r="29.3"></circle>
        <circle id="Oval" fill="#DD1166" sketch:type="MSShapeGroup" cx="701.5" cy="64.2" r="16.9"></circle>
        <circle id="Oval" stroke="#110000" stroke-width="11" sketch:type="MSShapeGroup" cx="764.5" cy="64.2" r="29.3"></circle>
        <circle id="Oval" fill="#DD1166" sketch:type="MSShapeGroup" cx="764.5" cy="64.2" r="16.9"></circle>
        <circle id="Oval" stroke="#110000" stroke-width="11" sketch:type="MSShapeGroup" cx="828.2" cy="64.2" r="29.3"></circle>
        <circle id="Oval" fill="#DD1166" sketch:type="MSShapeGroup" cx="828.2" cy="64.2" r="16.9"></circle>
        <circle id="Oval" stroke="#110000" stroke-width="11" sketch:type="MSShapeGroup" cx="638.6" cy="127.2" r="29.3"></circle>
        <circle id="Oval" fill="#DD1166" sketch:type="MSShapeGroup" cx="638.6" cy="127.2" r="16.9"></circle>
        <circle id="Oval" stroke="#110000" stroke-width="11" sketch:type="MSShapeGroup" cx="701.5" cy="127.2" r="29.3"></circle>
        <circle id="Oval" fill="#DD1166" sketch:type="MSShapeGroup" cx="701.5" cy="127.2" r="16.9"></circle>
        <circle id="Oval" stroke="#110000" stroke-width="11" sketch:type="MSShapeGroup" cx="764.5" cy="127.2" r="29.3"></circle>
        <circle id="Oval" fill="#DD1166" sketch:type="MSShapeGroup" cx="764.5" cy="127.2" r="16.9"></circle>
        <circle id="Oval" stroke="#110000" stroke-width="11" sketch:type="MSShapeGroup" cx="828.2" cy="127.2" r="29.3"></circle>
        <circle id="Oval" fill="#DD1166" sketch:type="MSShapeGroup" cx="828.2" cy="127.2" r="16.9"></circle>
        <circle id="Oval" stroke="#110000" stroke-width="11" sketch:type="MSShapeGroup" cx="638.6" cy="190.1" r="29.3"></circle>
        <circle id="Oval" fill="#DD1166" sketch:type="MSShapeGroup" cx="638.6" cy="190.1" r="16.9"></circle>
        <circle id="Oval" stroke="#110000" stroke-width="11" sketch:type="MSShapeGroup" cx="701.5" cy="190.1" r="29.3"></circle>
        <circle id="Oval" fill="#DD1166" sketch:type="MSShapeGroup" cx="701.5" cy="190.1" r="16.9"></circle>
        <circle id="Oval" stroke="#110000" stroke-width="11" sketch:type="MSShapeGroup" cx="764.5" cy="190.1" r="29.3"></circle>
        <circle id="Oval" fill="#DD1166" sketch:type="MSShapeGroup" cx="764.5" cy="190.1" r="16.9"></circle>
        <circle id="Oval" stroke="#110000" stroke-width="11" sketch:type="MSShapeGroup" cx="828.2" cy="190.1" r="29.3"></circle>
        <circle id="Oval" fill="#DD1166" sketch:type="MSShapeGroup" cx="828.2" cy="190.1" r="16.9"></circle>
        <circle id="Oval" fill="#DD1166" sketch:type="MSShapeGroup" cx="669.7" cy="64.2" r="8.1"></circle>
        <circle id="Oval" fill="#DD1166" sketch:type="MSShapeGroup" cx="638.6" cy="95.8" r="8.1"></circle>
        <circle id="Oval" fill="#DD1166" sketch:type="MSShapeGroup" cx="703" cy="95.8" r="8.1"></circle>
        <circle id="Oval" fill="#DD1166" sketch:type="MSShapeGroup" cx="765.2" cy="95.8" r="8.1"></circle>
        <circle id="Oval" fill="#DD1166" sketch:type="MSShapeGroup" cx="828.2" cy="95.8" r="8.1"></circle>
        <circle id="Oval" fill="#DD1166" sketch:type="MSShapeGroup" cx="638.6" cy="158.7" r="8.1"></circle>
        <circle id="Oval" fill="#DD1166" sketch:type="MSShapeGroup" cx="703" cy="158.7" r="8.1"></circle>
        <circle id="Oval" fill="#DD1166" sketch:type="MSShapeGroup" cx="765.2" cy="158.7" r="8.1"></circle>
        <circle id="Oval" fill="#DD1166" sketch:type="MSShapeGroup" cx="828.2" cy="158.7" r="8.1"></circle>
        <circle id="Oval" fill="#DD1166" sketch:type="MSShapeGroup" cx="732.6" cy="64.2" r="8.1"></circle>
        <circle id="Oval" fill="#DD1166" sketch:type="MSShapeGroup" cx="796.3" cy="64.2" r="8.1"></circle>
        <circle id="Oval" fill="#DD1166" sketch:type="MSShapeGroup" cx="669.7" cy="125.7" r="8.1"></circle>
        <circle id="Oval" fill="#DD1166" sketch:type="MSShapeGroup" cx="732.6" cy="125.7" r="8.1"></circle>
        <circle id="Oval" fill="#DD1166" sketch:type="MSShapeGroup" cx="796.3" cy="125.7" r="8.1"></circle>
        <circle id="Oval" fill="#DD1166" sketch:type="MSShapeGroup" cx="669.7" cy="188.6" r="8.1"></circle>
        <circle id="Oval" fill="#DD1166" sketch:type="MSShapeGroup" cx="732.6" cy="188.6" r="8.1"></circle>
        <circle id="Oval" fill="#DD1166" sketch:type="MSShapeGroup" cx="796.3" cy="188.6" r="8.1"></circle>
        <circle id="Oval" stroke="#000000" stroke-width="15" sketch:type="MSShapeGroup" cx="99.3" cy="127.6" r="91.6"></circle>
        <circle id="Oval" fill="#DD1166" sketch:type="MSShapeGroup" cx="99.3" cy="127.6" r="52.8"></circle>
        <path d="M193.9,70.8 C193.9,83.2 183.9,93.2 171.5,93.2 C159.1,93.2 149.1,83.2 149.1,70.8 C149.1,58.4 159.1,48.4 171.5,48.4 C183.8,48.4 193.9,58.4 193.9,70.8 L193.9,70.8 Z" id="Shape" fill="#DD1166" sketch:type="MSShapeGroup"></path>
        <path d="M1155.7,11 L1155.7,5 L1149.7,5" id="Shape" stroke="#110000" stroke-width="9" sketch:type="MSShapeGroup"></path>
        <path d="M1138.1,5 L1005.1,5" id="Shape" stroke="#110000" stroke-width="9" stroke-dasharray="11.5716,11.5716" sketch:type="MSShapeGroup"></path>
        <path d="M999.3,5 L993.3,5 L993.3,11" id="Shape" stroke="#110000" stroke-width="9" sketch:type="MSShapeGroup"></path>
        <path d="M993.3,17.4 L993.3,26.9" id="Shape" stroke="#110000" stroke-width="9" stroke-dasharray="6.3774,6.3774" sketch:type="MSShapeGroup"></path>
        <path d="M993.3,30.1 L993.3,36.1 L999.3,36.1" id="Shape" stroke="#110000" stroke-width="9" sketch:type="MSShapeGroup"></path>
        <path d="M1012.4,36.1 L1110.7,36.1" id="Shape" stroke="#110000" stroke-width="9" stroke-dasharray="13.105,13.105" sketch:type="MSShapeGroup"></path>
        <path d="M1117.2,36.1 L1123.2,36.1 L1123.2,42.1" id="Shape" stroke="#110000" stroke-width="9" sketch:type="MSShapeGroup"></path>
        <path d="M1123.2,53.5 L1123.2,207.2" id="Shape" stroke="#110000" stroke-width="9" stroke-dasharray="11.3823,11.3823" sketch:type="MSShapeGroup"></path>
        <path d="M1123.2,212.9 L1123.2,218.9 L1129.2,218.9" id="Shape" stroke="#110000" stroke-width="9" sketch:type="MSShapeGroup"></path>
        <path d="M1136.1,218.9 L1146.3,218.9" id="Shape" stroke="#110000" stroke-width="9" stroke-dasharray="6.8286,6.8286" sketch:type="MSShapeGroup"></path>
        <path d="M1150.7,218.9 L1155.7,218.9 L1155.7,213.9" id="Shape" stroke="#110000" stroke-width="9" sketch:type="MSShapeGroup"></path>
        <path d="M1155.7,201 L1155.7,16.9" id="Shape" stroke="#110000" stroke-width="9" stroke-dasharray="11.8745,11.8745" sketch:type="MSShapeGroup"></path>
        <path d="M993.3,40.4 L993.3,36.1 L987.3,36.1" id="Shape" stroke="#110000" stroke-width="9" sketch:type="MSShapeGroup"></path>
        <path d="M980.5,36.1 L970.2,36.1" id="Shape" stroke="#110000" stroke-width="9" stroke-dasharray="6.8288,6.8288" sketch:type="MSShapeGroup"></path>
        <path d="M966.8,36.1 L960.8,36.1 L960.8,42.1" id="Shape" stroke="#110000" stroke-width="9" sketch:type="MSShapeGroup"></path>
        <path d="M960.8,54 L960.8,238.1" id="Shape" stroke="#110000" stroke-width="9" stroke-dasharray="11.8746,11.8746" sketch:type="MSShapeGroup"></path>
        <path d="M960.8,244 L960.8,250 L966.8,250" id="Shape" stroke="#110000" stroke-width="9" sketch:type="MSShapeGroup"></path>
        <path d="M978.4,250 L1111.4,250" id="Shape" stroke="#110000" stroke-width="9" stroke-dasharray="11.5716,11.5716" sketch:type="MSShapeGroup"></path>
        <path d="M1117.2,250 L1123.2,250 L1123.2,244" id="Shape" stroke="#110000" stroke-width="9" sketch:type="MSShapeGroup"></path>
        <path d="M1123.2,237.6 L1123.2,228.1" id="Shape" stroke="#110000" stroke-width="9" stroke-dasharray="6.3776,6.3776" sketch:type="MSShapeGroup"></path>
        <path d="M1123.2,224.9 L1123.2,218.9 L1119.8,218.9" id="Shape" stroke="#110000" stroke-width="9" sketch:type="MSShapeGroup"></path>
        <path d="M1466.4,5 L1298.6,5 L1298.6,29.5 L1394.4,29.5 L1442,75.6 L1442,226 L1466.4,226 L1466.4,5 Z" id="Shape" stroke="#110000" stroke-width="8" sketch:type="MSShapeGroup"></path>
        <path d="M1395.1,29.5 L1274.1,29.5 L1274.1,250.5 L1442,250.5 L1442,81.9" id="Shape" stroke="#110000" stroke-width="8" sketch:type="MSShapeGroup"></path>
        <path d="M1396.9,35.9 L1397,76 L1436.6,76.2 L1396.9,35.9 Z" id="Shape" stroke="#110000" stroke-width="8" sketch:type="MSShapeGroup"></path>
        <circle id="Oval" stroke="#110000" stroke-width="15" sketch:type="MSShapeGroup" cx="339" cy="175.3" r="49.3"></circle>
        <circle id="Oval" fill="#DD1166" sketch:type="MSShapeGroup" cx="339" cy="175.3" r="28.4"></circle>
        <circle id="Oval" stroke="#110000" stroke-width="15" sketch:type="MSShapeGroup" cx="394.5" cy="79.5" r="49.3"></circle>
        <circle id="Oval" fill="#DD1166" sketch:type="MSShapeGroup" cx="394.5" cy="79.5" r="28.4"></circle>
        <circle id="Oval" stroke="#110000" stroke-width="15" sketch:type="MSShapeGroup" cx="450.3" cy="175.3" r="49.3"></circle>
        <circle id="Oval" fill="#DD1166" sketch:type="MSShapeGroup" cx="450.3" cy="175.3" r="28.4"></circle>
        <circle id="Oval" fill="#DD1166" sketch:type="MSShapeGroup" cx="363.6" cy="136.5" r="12.1"></circle>
        <circle id="Oval" fill="#DD1166" sketch:type="MSShapeGroup" cx="387.6" cy="176.1" r="12.1"></circle>
        <circle id="Oval" fill="#DD1166" sketch:type="MSShapeGroup" cx="400.9" cy="176.1" r="12.1"></circle>
        <circle id="Oval" fill="#DD1166" sketch:type="MSShapeGroup" cx="427.1" cy="136" r="12.1"></circle>
        <circle id="Oval" fill="#DD1166" sketch:type="MSShapeGroup" cx="370.4" cy="121" r="12.1"></circle>
        <circle id="Oval" fill="#DD1166" sketch:type="MSShapeGroup" cx="421.9" cy="121.8" r="12.1"></circle>
        <path d="M250.3,126 L235,140.6 L235,111.4 L250.3,126 Z" id="Shape" fill="#77CC00" sketch:type="MSShapeGroup"></path>
        <path d="M561.3,126 L546,140.6 L546,111.4 L561.3,126 Z" id="Shape" fill="#77CC00" sketch:type="MSShapeGroup"></path>
        <path d="M917.3,126 L902,140.6 L902,111.4 L917.3,126 Z" id="Shape" fill="#77CC00" sketch:type="MSShapeGroup"></path>
        <path d="M1223.3,126 L1208,140.6 L1208,111.4 L1223.3,126 Z" id="Shape" fill="#77CC00" sketch:type="MSShapeGroup"></path>
    </g>
</svg>