<?xml version="1.0" encoding="UTF-8" standalone="no"?>
<svg width="200px" height="150px" viewBox="0 0 200 150" version="1.1" xmlns="http://www.w3.org/2000/svg" xmlns:xlink="http://www.w3.org/1999/xlink" xmlns:sketch="http://www.bohemiancoding.com/sketch/ns">
    <!-- Generator: Sketch 3.3.1 (12005) - http://www.bohemiancoding.com/sketch -->
    <title>coherence</title>
    <desc>Created with Sketch.</desc>
    <defs></defs>
    <g id="Page-1" stroke="none" stroke-width="1" fill="none" fill-rule="evenodd" sketch:type="MSPage">
        <g id="coherence" sketch:type="MSArtboardGroup">
            <g id="Group" sketch:type="MSLayerGroup">
                <rect id="Rectangle-path" sketch:type="MSShapeGroup" x="0" y="0.225" width="200" height="143"></rect>
                <path d="M4.407,86.578 L91.517,86.578 L91.517,134.272 L4.407,134.272 L4.407,86.578 L4.407,86.578 Z M-1.42108547e-14,138.675 L95.924,138.675 L95.924,82.176 L-1.42108547e-14,82.176 L-1.42108547e-14,138.675 L-1.42108547e-14,138.675 Z" id="Shape" fill="#333333" sketch:type="MSShapeGroup"></path>
                <rect id="Rectangle-path" sketch:type="MSShapeGroup" x="0" y="0.225" width="200" height="143"></rect>
                <path d="M33.052,139.556 L25.56,143.225 L70.364,143.225 L62.872,139.556 L33.052,139.556 Z" id="Shape" fill="#333333" sketch:type="MSShapeGroup"></path>
                <rect id="Rectangle-path" sketch:type="MSShapeGroup" x="0" y="0.225" width="200" height="143"></rect>
                <path d="M127.433,39.113 L183.694,39.113 L183.694,0.224 L127.433,0.224 L127.433,39.113 L127.433,39.113 Z M179.288,34.712 L131.84,34.712 L131.84,4.628 L179.288,4.628 L179.288,34.712 L179.288,34.712 Z" id="Shape" fill="#333333" sketch:type="MSShapeGroup"></path>
                <rect id="Rectangle-path" sketch:type="MSShapeGroup" x="0" y="0.225" width="200" height="143"></rect>
                <path d="M183.695,39.994 L127.434,39.994 L111.128,43.664 L200,43.664 L183.695,39.994 Z" id="Shape" fill="#333333" sketch:type="MSShapeGroup"></path>
                <rect id="Rectangle-path" sketch:type="MSShapeGroup" x="0" y="0.225" width="200" height="143"></rect>
                <path d="M159.905,44.544 L159.905,45.277 L151.223,45.277 L151.223,44.544 L111.128,44.544 L111.128,48.065 L200,48.065 L200,44.544 L159.905,44.544 Z" id="Shape" fill="#333333" sketch:type="MSShapeGroup"></path>
                <rect id="Rectangle-path" sketch:type="MSShapeGroup" x="0" y="0.225" width="200" height="143"></rect>
                <rect id="Rectangle-path" sketch:type="MSShapeGroup" x="0" y="0.225" width="200" height="143"></rect>
                <path d="M152.405,140.803 L191.334,140.803 L191.334,84.597 L152.405,84.597 L152.405,140.803 L152.405,140.803 Z M173.118,138.602 C173.118,139.291 172.558,139.85 171.869,139.85 C171.18,139.85 170.621,139.291 170.621,138.602 C170.621,137.914 171.18,137.355 171.869,137.355 C172.558,137.355 173.118,137.912 173.118,138.602 L173.118,138.602 Z M186.927,136.4 L156.813,136.4 L156.813,89 L186.927,89 L186.927,136.4 L186.927,136.4 Z" id="Shape" fill="#333333" sketch:type="MSShapeGroup"></path>
                <rect id="Rectangle-path" sketch:type="MSShapeGroup" x="0" y="0.225" width="200" height="143"></rect>
                <path d="M38.34,34.712 L54.939,34.712 L54.939,4.628 L38.34,4.628 L38.34,34.712 L38.34,34.712 Z M46.64,33.795 C45.952,33.795 45.391,33.235 45.391,32.547 C45.391,31.858 45.951,31.299 46.64,31.299 C47.33,31.299 47.889,31.858 47.889,32.547 C47.889,33.235 47.33,33.795 46.64,33.795 L46.64,33.795 Z M53.177,30.309 L40.103,30.309 L40.103,9.03 L53.177,9.03 L53.177,30.309 L53.177,30.309 Z" id="Shape" fill="#333333" sketch:type="MSShapeGroup"></path>
                <rect id="Rectangle-path" sketch:type="MSShapeGroup" x="0" y="0.225" width="200" height="143"></rect>
                <path d="M39.305,110.425 C39.305,105.649 43.181,101.777 47.962,101.777 C52.743,101.777 56.619,105.649 56.619,110.425 C56.619,115.201 52.744,119.073 47.962,119.073 C43.18,119.073 39.305,115.202 39.305,110.425" id="Shape" fill="#DD1166" sketch:type="MSShapeGroup"></path>
                <rect id="Rectangle-path" sketch:type="MSShapeGroup" x="0" y="0.225" width="200" height="143"></rect>
                <path d="M43.334,19.67 C43.334,17.846 44.813,16.367 46.639,16.367 C48.465,16.367 49.944,17.846 49.944,19.67 C49.944,21.493 48.465,22.972 46.639,22.972 C44.813,22.972 43.334,21.493 43.334,19.67" id="Shape" fill="#DD1166" sketch:type="MSShapeGroup"></path>
                <rect id="Rectangle-path" sketch:type="MSShapeGroup" x="0" y="0.225" width="200" height="143"></rect>
                <path d="M139.415,14.387 C139.415,12.042 141.317,10.141 143.665,10.141 C146.012,10.141 147.915,12.042 147.915,14.387 C147.915,16.732 146.012,18.633 143.665,18.633 C141.318,18.633 139.415,16.731 139.415,14.387" id="Shape" fill="#DD1166" sketch:type="MSShapeGroup"></path>
                <rect id="Rectangle-path" sketch:type="MSShapeGroup" x="0" y="0.225" width="200" height="143"></rect>
                <path d="M151.314,14.387 C151.314,12.042 153.217,10.141 155.564,10.141 C157.912,10.141 159.814,12.042 159.814,14.387 C159.814,16.732 157.912,18.633 155.564,18.633 C153.217,18.633 151.314,16.731 151.314,14.387" id="Shape" fill="#DD1166" sketch:type="MSShapeGroup"></path>
                <rect id="Rectangle-path" sketch:type="MSShapeGroup" x="0" y="0.225" width="200" height="143"></rect>
                <path d="M163.212,14.387 C163.212,12.042 165.115,10.141 167.462,10.141 C169.809,10.141 171.712,12.042 171.712,14.387 C171.712,16.732 169.809,18.633 167.462,18.633 C165.115,18.633 163.212,16.731 163.212,14.387" id="Shape" fill="#DD1166" sketch:type="MSShapeGroup"></path>
                <rect id="Rectangle-path" sketch:type="MSShapeGroup" x="0" y="0.225" width="200" height="143"></rect>
                <path d="M163.212,26.272 C163.212,23.927 165.115,22.026 167.462,22.026 C169.809,22.026 171.712,23.927 171.712,26.272 C171.712,28.617 169.809,30.519 167.462,30.519 C165.115,30.519 163.212,28.618 163.212,26.272" id="Shape" fill="#DD1166" sketch:type="MSShapeGroup"></path>
                <rect id="Rectangle-path" sketch:type="MSShapeGroup" x="0" y="0.225" width="200" height="143"></rect>
                <path d="M151.314,26.272 C151.314,23.927 153.217,22.026 155.564,22.026 C157.912,22.026 159.814,23.927 159.814,26.272 C159.814,28.617 157.912,30.519 155.564,30.519 C153.217,30.52 151.314,28.618 151.314,26.272" id="Shape" fill="#DD1166" sketch:type="MSShapeGroup"></path>
                <rect id="Rectangle-path" sketch:type="MSShapeGroup" x="0" y="0.225" width="200" height="143"></rect>
                <path d="M139.415,26.272 C139.415,23.927 141.317,22.026 143.665,22.026 C146.012,22.026 147.915,23.927 147.915,26.272 C147.915,28.617 146.012,30.519 143.665,30.519 C141.318,30.52 139.415,28.618 139.415,26.272" id="Shape" fill="#DD1166" sketch:type="MSShapeGroup"></path>
                <rect id="Rectangle-path" sketch:type="MSShapeGroup" x="0" y="0.225" width="200" height="143"></rect>
                <path d="M166.166,104.725 C166.166,101.579 168.72,99.027 171.87,99.027 C175.019,99.027 177.574,101.579 177.574,104.725 C177.574,107.871 175.019,110.423 171.87,110.423 C168.72,110.423 166.166,107.871 166.166,104.725" id="Shape" fill="#DD1166" sketch:type="MSShapeGroup"></path>
                <rect id="Rectangle-path" sketch:type="MSShapeGroup" x="0" y="0.225" width="200" height="143"></rect>
                <path d="M166.166,120.676 C166.166,117.53 168.72,114.979 171.87,114.979 C175.019,114.979 177.574,117.53 177.574,120.676 C177.574,123.822 175.019,126.374 171.87,126.374 C168.72,126.374 166.166,123.822 166.166,120.676" id="Shape" fill="#DD1166" sketch:type="MSShapeGroup"></path>
            </g>
        </g>
    </g>
</svg>