<?xml version="1.0" encoding="UTF-8" standalone="no"?>
<svg width="200px" height="150px" viewBox="0 0 200 150" version="1.1" xmlns="http://www.w3.org/2000/svg" xmlns:xlink="http://www.w3.org/1999/xlink" xmlns:sketch="http://www.bohemiancoding.com/sketch/ns">
    <!-- Generator: Sketch 3.3.1 (12005) - http://www.bohemiancoding.com/sketch -->
    <title>sync</title>
    <desc>Created with Sketch.</desc>
    <defs></defs>
    <g id="Page-1" stroke="none" stroke-width="1" fill="none" fill-rule="evenodd" sketch:type="MSPage">
        <g id="sync" sketch:type="MSArtboardGroup">
            <g id="Group" sketch:type="MSLayerGroup">
                <rect id="Rectangle-path" sketch:type="MSShapeGroup" x="0" y="0.225" width="200" height="147"></rect>
                <path d="M4.407,86.665 L91.516,86.665 L91.516,134.406 L4.407,134.406 L4.407,86.665 L4.407,86.665 Z M0,138.813 L95.923,138.813 L95.923,82.257 L0,82.257 L0,138.813 L0,138.813 Z" id="Shape" fill="#333333" sketch:type="MSShapeGroup"></path>
                <rect id="Rectangle-path" sketch:type="MSShapeGroup" x="0" y="0.225" width="200" height="147"></rect>
                <path d="M62.871,139.695 L33.051,139.695 L25.56,143.368 L70.363,143.368 L62.871,139.695 Z" id="Shape" fill="#333333" sketch:type="MSShapeGroup"></path>
                <rect id="Rectangle-path" sketch:type="MSShapeGroup" x="0" y="0.225" width="200" height="147"></rect>
                <path d="M127.434,39.152 L183.695,39.152 L183.695,0.224 L127.434,0.224 L127.434,39.152 L127.434,39.152 Z M179.287,34.746 L131.84,34.746 L131.84,4.632 L179.287,4.632 L179.287,34.746 L179.287,34.746 Z" id="Shape" fill="#333333" sketch:type="MSShapeGroup"></path>
                <rect id="Rectangle-path" sketch:type="MSShapeGroup" x="0" y="0.225" width="200" height="147"></rect>
                <path d="M183.694,40.034 L127.434,40.034 L111.128,43.707 L200,43.707 L183.694,40.034 Z" id="Shape" fill="#333333" sketch:type="MSShapeGroup"></path>
                <rect id="Rectangle-path" sketch:type="MSShapeGroup" x="0" y="0.225" width="200" height="147"></rect>
                <path d="M159.904,44.589 L159.904,45.322 L151.223,45.322 L151.223,44.589 L111.128,44.589 L111.128,48.114 L200,48.114 L200,44.589 L159.904,44.589 Z" id="Shape" fill="#333333" sketch:type="MSShapeGroup"></path>
                <rect id="Rectangle-path" sketch:type="MSShapeGroup" x="0" y="0.225" width="200" height="147"></rect>
                <rect id="Rectangle-path" sketch:type="MSShapeGroup" x="0" y="0.225" width="200" height="147"></rect>
                <path d="M152.405,140.944 L191.333,140.944 L191.333,84.681 L152.405,84.681 L152.405,140.944 L152.405,140.944 Z M173.117,138.74 C173.117,139.43 172.557,139.989 171.868,139.989 C171.18,139.989 170.619,139.43 170.619,138.74 C170.619,138.052 171.18,137.492 171.868,137.492 C172.558,137.492 173.117,138.051 173.117,138.74 L173.117,138.74 Z M186.926,136.537 L156.813,136.537 L156.813,89.088 L186.926,89.088 L186.926,136.537 L186.926,136.537 Z" id="Shape" fill="#333333" sketch:type="MSShapeGroup"></path>
                <rect id="Rectangle-path" sketch:type="MSShapeGroup" x="0" y="0.225" width="200" height="147"></rect>
                <path d="M38.34,34.746 L54.939,34.746 L54.939,4.632 L38.34,4.632 L38.34,34.746 L38.34,34.746 Z M46.64,33.828 C45.951,33.828 45.391,33.269 45.391,32.58 C45.391,31.891 45.951,31.331 46.64,31.331 C47.328,31.331 47.889,31.89 47.889,32.58 C47.889,33.269 47.328,33.828 46.64,33.828 L46.64,33.828 Z M53.177,30.339 L40.103,30.339 L40.103,9.039 L53.177,9.039 L53.177,30.339 L53.177,30.339 Z" id="Shape" fill="#333333" sketch:type="MSShapeGroup"></path>
                <rect id="Rectangle-path" sketch:type="MSShapeGroup" x="0" y="0.225" width="200" height="147"></rect>
                <path d="M61.701,17.877 L60.175,15.718 C72.154,7.243 86.27,2.764 100.99,2.764 C107.656,2.764 114.258,3.691 120.607,5.52 L119.877,8.061 C113.765,6.3 107.409,5.408 100.99,5.408 C86.819,5.409 73.233,9.721 61.701,17.877" id="Shape" fill="#DD1166" sketch:type="MSShapeGroup"></path>
                <rect id="Rectangle-path" sketch:type="MSShapeGroup" x="0" y="0.225" width="200" height="147"></rect>
                <path d="M116.525,0.966 L119.49,6.571 L113.886,9.534 L117.523,10.654 L123.125,7.69 L120.162,2.086 L116.525,0.966 Z" id="Shape" fill="#DD1166" sketch:type="MSShapeGroup"></path>
                <rect id="Rectangle-path" sketch:type="MSShapeGroup" x="0" y="0.225" width="200" height="147"></rect>
                <path d="M171.698,76.292 L169.055,76.187 C169.09,75.306 169.108,74.411 169.108,73.528 C169.108,66.821 168.132,60.189 166.211,53.817 L168.741,53.053 C170.739,59.673 171.754,66.562 171.754,73.528 C171.754,74.445 171.735,75.376 171.698,76.292" id="Shape" fill="#DD1166" sketch:type="MSShapeGroup"></path>
                <rect id="Rectangle-path" sketch:type="MSShapeGroup" x="0" y="0.225" width="200" height="147"></rect>
                <path d="M175.146,71.239 L170.413,75.459 L166.196,70.724 L165.978,74.523 L170.195,79.257 L174.928,75.039 L175.146,71.239 Z" id="Shape" fill="#DD1166" sketch:type="MSShapeGroup"></path>
                <rect id="Rectangle-path" sketch:type="MSShapeGroup" x="0" y="0.225" width="200" height="147"></rect>
                <path d="M105.607,144.14 L105.438,141.501 C121.482,140.468 136.704,133.73 148.298,122.533 L150.135,124.435 C138.091,136.068 122.277,143.065 105.607,144.14" id="Shape" fill="#DD1166" sketch:type="MSShapeGroup"></path>
                <rect id="Rectangle-path" sketch:type="MSShapeGroup" x="0" y="0.225" width="200" height="147"></rect>
                <path d="M110.986,147.052 L106.303,142.777 L110.579,138.096 L106.777,138.269 L102.503,142.949 L107.185,147.225 L110.986,147.052 Z" id="Shape" fill="#DD1166" sketch:type="MSShapeGroup"></path>
                <rect id="Rectangle-path" sketch:type="MSShapeGroup" x="0" y="0.225" width="200" height="147"></rect>
                <path d="M30.369,77.932 C30.275,76.395 30.229,74.955 30.229,73.528 C30.229,61.72 33.198,50.031 38.815,39.725 L41.136,40.99 C35.73,50.91 32.872,62.161 32.872,73.528 C32.872,74.9 32.917,76.289 33.008,77.77 L30.369,77.932 L30.369,77.932 Z" id="Shape" fill="#DD1166" sketch:type="MSShapeGroup"></path>
                <rect id="Rectangle-path" sketch:type="MSShapeGroup" x="0" y="0.225" width="200" height="147"></rect>
                <path d="M33.522,42.787 L39.623,41.058 L41.35,47.159 L43.205,43.837 L41.479,37.737 L35.379,39.465 L33.522,42.787 Z" id="Shape" fill="#DD1166" sketch:type="MSShapeGroup"></path>
            </g>
        </g>
    </g>
</svg>