<?xml version="1.0" encoding="utf-8"?>
<!-- Generator: Adobe Illustrator 16.0.4, SVG Export Plug-In . SVG Version: 6.00 Build 0)  -->
<!DOCTYPE svg PUBLIC "-//W3C//DTD SVG 1.1//EN" "http://www.w3.org/Graphics/SVG/1.1/DTD/svg11.dtd">
<svg version="1.1" id="Ebene_1" xmlns="http://www.w3.org/2000/svg" xmlns:xlink="http://www.w3.org/1999/xlink" x="0px" y="0px"
	 width="1024px" height="768px" viewBox="0 0 1024 768" enable-background="new 0 0 1024 768" xml:space="preserve">
<rect x="90" y="159.225" fill="none" width="200" height="143"/>
<path fill="#333333" d="M94.407,245.578h87.11v47.694h-87.11V245.578z M90,297.675h95.924v-56.499H90V297.675z"/>
<rect x="90" y="159.225" fill="none" width="200" height="143"/>
<polygon fill="#333333" points="123.052,298.556 115.56,302.225 160.364,302.225 152.872,298.556 "/>
<rect x="90" y="159.225" fill="none" width="200" height="143"/>
<path fill="#333333" d="M217.433,198.113h56.261v-38.889h-56.261V198.113z M269.288,193.712H221.84v-30.084h47.448V193.712z"/>
<rect x="90" y="159.225" fill="none" width="200" height="143"/>
<polygon fill="#333333" points="273.695,198.994 217.434,198.994 201.128,202.664 290,202.664 "/>
<rect x="90" y="159.225" fill="none" width="200" height="143"/>
<polygon fill="#333333" points="249.905,203.544 249.905,204.277 241.223,204.277 241.223,203.544 201.128,203.544 201.128,207.065 
	290,207.065 290,203.544 "/>
<rect x="90" y="159.225" fill="none" width="200" height="143"/>
<rect x="90" y="159.225" fill="none" width="200" height="143"/>
<path fill="#333333" d="M242.405,299.803h38.929v-56.206h-38.929V299.803z M263.118,297.602c0,0.689-0.56,1.248-1.249,1.248
	s-1.248-0.559-1.248-1.248c0-0.688,0.559-1.247,1.248-1.247S263.118,296.912,263.118,297.602 M276.927,295.4h-30.114V248h30.114
	V295.4z"/>
<rect x="90" y="159.225" fill="none" width="200" height="143"/>
<path fill="#333333" d="M128.34,193.712h16.599v-30.084H128.34V193.712z M136.64,192.795c-0.688,0-1.249-0.56-1.249-1.248
	c0-0.689,0.56-1.248,1.249-1.248c0.69,0,1.249,0.559,1.249,1.248C137.889,192.235,137.33,192.795,136.64,192.795 M143.177,189.309
	h-13.074v-21.279h13.074V189.309z"/>
<rect x="90" y="159.225" fill="none" width="200" height="143"/>
<path fill="#F39200" d="M129.305,269.425c0-4.776,3.876-8.648,8.657-8.648s8.657,3.872,8.657,8.648s-3.875,8.648-8.657,8.648
	S129.305,274.202,129.305,269.425"/>
<rect x="90" y="159.225" fill="none" width="200" height="143"/>
<path fill="#F39200" d="M133.334,178.67c0-1.824,1.479-3.303,3.305-3.303s3.305,1.479,3.305,3.303c0,1.823-1.479,3.302-3.305,3.302
	S133.334,180.493,133.334,178.67"/>
<rect x="90" y="159.225" fill="none" width="200" height="143"/>
<path fill="#F39200" d="M229.415,173.387c0-2.345,1.902-4.246,4.25-4.246c2.347,0,4.25,1.901,4.25,4.246s-1.903,4.246-4.25,4.246
	C231.318,177.633,229.415,175.731,229.415,173.387"/>
<rect x="90" y="159.225" fill="none" width="200" height="143"/>
<path fill="#F39200" d="M241.314,173.387c0-2.345,1.903-4.246,4.25-4.246c2.348,0,4.25,1.901,4.25,4.246s-1.902,4.246-4.25,4.246
	C243.217,177.633,241.314,175.731,241.314,173.387"/>
<rect x="90" y="159.225" fill="none" width="200" height="143"/>
<path fill="#F39200" d="M253.212,173.387c0-2.345,1.903-4.246,4.25-4.246s4.25,1.901,4.25,4.246s-1.903,4.246-4.25,4.246
	S253.212,175.731,253.212,173.387"/>
<rect x="90" y="159.225" fill="none" width="200" height="143"/>
<path fill="#F39200" d="M253.212,185.272c0-2.345,1.903-4.246,4.25-4.246s4.25,1.901,4.25,4.246s-1.903,4.247-4.25,4.247
	S253.212,187.618,253.212,185.272"/>
<rect x="90" y="159.225" fill="none" width="200" height="143"/>
<path fill="#F39200" d="M241.314,185.272c0-2.345,1.903-4.246,4.25-4.246c2.348,0,4.25,1.901,4.25,4.246s-1.902,4.247-4.25,4.247
	C243.217,189.52,241.314,187.618,241.314,185.272"/>
<rect x="90" y="159.225" fill="none" width="200" height="143"/>
<path fill="#F39200" d="M229.415,185.272c0-2.345,1.902-4.246,4.25-4.246c2.347,0,4.25,1.901,4.25,4.246s-1.903,4.247-4.25,4.247
	C231.318,189.52,229.415,187.618,229.415,185.272"/>
<rect x="90" y="159.225" fill="none" width="200" height="143"/>
<path fill="#F39200" d="M256.166,263.725c0-3.146,2.554-5.698,5.704-5.698c3.149,0,5.704,2.552,5.704,5.698
	s-2.555,5.698-5.704,5.698C258.72,269.423,256.166,266.871,256.166,263.725"/>
<rect x="90" y="159.225" fill="none" width="200" height="143"/>
<path fill="#F39200" d="M256.166,279.676c0-3.146,2.554-5.697,5.704-5.697c3.149,0,5.704,2.551,5.704,5.697
	c0,3.146-2.555,5.698-5.704,5.698C258.72,285.374,256.166,282.822,256.166,279.676"/>
<rect x="412" y="159.225" fill="none" width="200" height="147"/>
<path fill="#333333" d="M416.407,245.665h87.109v47.741h-87.109V245.665L416.407,245.665z M412,297.813h95.923v-56.556H412V297.813z
	"/>
<rect x="412" y="159.225" fill="none" width="200" height="147"/>
<polygon fill="#333333" points="474.871,298.695 445.051,298.695 437.56,302.368 482.363,302.368 "/>
<rect x="412" y="159.225" fill="none" width="200" height="147"/>
<path fill="#333333" d="M539.434,198.152h56.261v-38.928h-56.261V198.152z M591.287,193.746H543.84v-30.114h47.447V193.746z"/>
<rect x="412" y="159.225" fill="none" width="200" height="147"/>
<polygon fill="#333333" points="595.694,199.034 539.434,199.034 523.128,202.707 612,202.707 "/>
<rect x="412" y="159.225" fill="none" width="200" height="147"/>
<polygon fill="#333333" points="571.904,203.589 571.904,204.322 563.223,204.322 563.223,203.589 523.128,203.589 523.128,207.114 
	612,207.114 612,203.589 "/>
<rect x="412" y="159.225" fill="none" width="200" height="147"/>
<rect x="412" y="159.225" fill="none" width="200" height="147"/>
<path fill="#333333" d="M564.405,299.944h38.928v-56.263h-38.928V299.944z M585.117,297.74c0,0.69-0.56,1.249-1.249,1.249
	c-0.688,0-1.249-0.559-1.249-1.249c0-0.688,0.561-1.248,1.249-1.248C584.558,296.492,585.117,297.051,585.117,297.74
	 M598.926,295.537h-30.113v-47.449h30.113V295.537z"/>
<rect x="412" y="159.225" fill="none" width="200" height="147"/>
<path fill="#333333" d="M450.34,193.746h16.599v-30.114H450.34V193.746z M458.64,192.828c-0.689,0-1.249-0.559-1.249-1.248
	s0.56-1.249,1.249-1.249c0.688,0,1.249,0.559,1.249,1.249C459.889,192.269,459.328,192.828,458.64,192.828 M465.177,189.339h-13.074
	v-21.3h13.074V189.339z"/>
<rect x="412" y="159.225" fill="none" width="200" height="147"/>
<path fill="#F39200" d="M473.701,176.877l-1.526-2.159c11.979-8.475,26.095-12.954,40.815-12.954c6.666,0,13.268,0.927,19.617,2.756
	l-0.73,2.541c-6.112-1.761-12.468-2.653-18.887-2.653C498.819,164.409,485.233,168.721,473.701,176.877"/>
<rect x="412" y="159.225" fill="none" width="200" height="147"/>
<polygon fill="#F39200" points="528.525,159.966 531.49,165.571 525.886,168.534 529.523,169.654 535.125,166.69 532.162,161.086 
	"/>
<rect x="412" y="159.225" fill="none" width="200" height="147"/>
<path fill="#F39200" d="M583.698,235.292l-2.643-0.105c0.035-0.881,0.053-1.776,0.053-2.659c0-6.707-0.976-13.339-2.897-19.711
	l2.53-0.764c1.998,6.62,3.013,13.509,3.013,20.475C583.754,233.445,583.735,234.376,583.698,235.292"/>
<rect x="412" y="159.225" fill="none" width="200" height="147"/>
<polygon fill="#F39200" points="587.146,230.239 582.413,234.459 578.196,229.724 577.978,233.523 582.195,238.257 586.928,234.039 
	"/>
<rect x="412" y="159.225" fill="none" width="200" height="147"/>
<path fill="#F39200" d="M517.607,303.14l-0.169-2.639c16.044-1.033,31.266-7.771,42.86-18.968l1.837,1.902
	C550.091,295.068,534.277,302.065,517.607,303.14"/>
<rect x="412" y="159.225" fill="none" width="200" height="147"/>
<polygon fill="#F39200" points="522.986,306.052 518.303,301.777 522.579,297.096 518.777,297.269 514.503,301.949 519.185,306.225 
	"/>
<rect x="412" y="159.225" fill="none" width="200" height="147"/>
<path fill="#F39200" d="M442.369,236.932c-0.094-1.537-0.14-2.977-0.14-4.404c0-11.808,2.969-23.497,8.586-33.803l2.321,1.265
	c-5.406,9.92-8.264,21.171-8.264,32.538c0,1.372,0.045,2.761,0.136,4.242L442.369,236.932z"/>
<rect x="412" y="159.225" fill="none" width="200" height="147"/>
<polygon fill="#F39200" points="445.522,201.787 451.623,200.058 453.35,206.159 455.205,202.837 453.479,196.737 447.379,198.465 
	"/>
<rect x="734" y="159.225" fill="none" width="200" height="143"/>
<path fill="#333333" d="M738.406,245.578h87.109v47.694h-87.109V245.578z M734,297.675h95.924v-56.499H734V297.675z"/>
<rect x="734" y="159.225" fill="none" width="200" height="143"/>
<polygon fill="#333333" points="767.051,298.556 759.56,302.225 804.363,302.225 796.87,298.556 "/>
<rect x="734" y="159.225" fill="none" width="200" height="143"/>
<path fill="#333333" d="M861.434,198.113h56.261v-38.889h-56.261V198.113z M913.287,193.712H865.84v-30.084h47.447V193.712z"/>
<rect x="734" y="159.225" fill="none" width="200" height="143"/>
<polygon fill="#333333" points="917.694,198.994 861.434,198.994 845.128,202.664 934,202.664 "/>
<rect x="734" y="159.225" fill="none" width="200" height="143"/>
<polygon fill="#333333" points="893.904,203.544 893.904,204.277 885.223,204.277 885.223,203.544 845.128,203.544 845.128,207.065 
	934,207.065 934,203.544 "/>
<rect x="734" y="159.225" fill="none" width="200" height="143"/>
<rect x="734" y="159.225" fill="none" width="200" height="143"/>
<path fill="#333333" d="M886.405,299.803h38.928v-56.206h-38.928V299.803z M907.117,297.602c0,0.689-0.56,1.248-1.249,1.248
	c-0.688,0-1.249-0.559-1.249-1.248c0-0.688,0.561-1.247,1.249-1.247C906.558,296.354,907.117,296.912,907.117,297.602
	 M920.926,295.4h-30.113V248h30.113V295.4z"/>
<rect x="734" y="159.225" fill="none" width="200" height="143"/>
<path fill="#333333" d="M772.34,193.712h16.6v-30.084h-16.6V193.712z M780.64,192.795c-0.689,0-1.249-0.56-1.249-1.248
	c0-0.689,0.56-1.248,1.249-1.248c0.688,0,1.249,0.559,1.249,1.248C781.889,192.235,781.328,192.795,780.64,192.795 M787.177,189.309
	h-13.074v-21.279h13.074V189.309z"/>
<rect x="734" y="159.225" fill="none" width="200" height="143"/>
<polygon fill="#F39200" points="890.812,274.719 890.812,277.36 907.191,277.36 907.191,248 904.547,248 904.547,274.719 "/>
<rect x="734" y="159.225" fill="none" width="200" height="143"/>
<polygon fill="#F39200" points="783.282,245.578 780.64,245.578 780.64,277.359 825.517,277.359 825.517,274.719 783.282,274.719 
	"/>
<rect x="734" y="159.225" fill="none" width="200" height="143"/>
<polygon fill="#F39200" points="787.177,179.99 787.177,177.349 780.64,177.349 780.64,189.309 783.282,189.309 783.282,179.99 "/>
<rect x="734" y="159.225" fill="none" width="200" height="143"/>
<polygon fill="#F39200" points="904.547,193.712 907.191,193.712 907.191,177.349 865.84,177.349 865.84,179.99 904.547,179.99 "/>
<path fill="#333333" d="M100.464,338.44c-0.288-0.117-0.571-0.205-0.848-0.264c-0.278-0.06-0.539-0.088-0.784-0.088
	c-0.416,0-0.787,0.085-1.112,0.256c-0.326,0.171-0.6,0.398-0.824,0.688c-0.224,0.289-0.395,0.616-0.512,0.984
	s-0.176,0.744-0.176,1.128c0,0.363,0.05,0.727,0.151,1.088c0.103,0.363,0.262,0.691,0.48,0.984s0.501,0.53,0.848,0.712
	c0.348,0.182,0.76,0.271,1.24,0.271c0.256,0,0.53-0.04,0.824-0.119c0.293-0.079,0.557-0.194,0.792-0.345l0.111,1.345
	c-0.309,0.148-0.632,0.242-0.968,0.279s-0.643,0.058-0.92,0.058c-0.619,0-1.182-0.112-1.688-0.337
	c-0.508-0.225-0.944-0.53-1.312-0.921c-0.368-0.389-0.654-0.842-0.855-1.358c-0.203-0.519-0.305-1.069-0.305-1.656
	c0-0.618,0.1-1.189,0.296-1.712c0.197-0.523,0.48-0.974,0.849-1.353s0.805-0.675,1.312-0.889c0.506-0.213,1.075-0.318,1.704-0.318
	c0.31,0,0.637,0.03,0.984,0.096c0.347,0.062,0.626,0.139,0.84,0.224L100.464,338.44z"/>
<path fill="#333333" d="M101.839,341.145c0-0.618,0.099-1.189,0.296-1.712s0.479-0.974,0.848-1.352
	c0.368-0.38,0.806-0.676,1.312-0.89c0.507-0.213,1.075-0.318,1.704-0.318c0.619,0,1.184,0.105,1.695,0.318
	c0.513,0.214,0.949,0.51,1.312,0.89c0.363,0.378,0.643,0.828,0.84,1.352c0.197,0.522,0.296,1.094,0.296,1.712
	c0,0.587-0.102,1.139-0.304,1.656c-0.202,0.517-0.485,0.971-0.848,1.358c-0.363,0.391-0.801,0.696-1.312,0.922
	c-0.512,0.224-1.072,0.336-1.68,0.336c-0.619,0-1.183-0.112-1.688-0.336c-0.507-0.226-0.943-0.531-1.312-0.922
	c-0.368-0.389-0.653-0.842-0.856-1.358C101.94,342.283,101.839,341.731,101.839,341.145z M103.439,341.145
	c0,0.363,0.052,0.727,0.152,1.088c0.102,0.363,0.256,0.691,0.464,0.984s0.472,0.53,0.792,0.712s0.704,0.271,1.152,0.271
	c0.437,0,0.815-0.09,1.136-0.271c0.32-0.183,0.584-0.419,0.792-0.712s0.362-0.621,0.464-0.984c0.102-0.361,0.152-0.725,0.152-1.088
	c0-0.384-0.06-0.76-0.176-1.128c-0.118-0.368-0.283-0.696-0.496-0.984s-0.48-0.517-0.801-0.688
	c-0.319-0.171-0.677-0.256-1.071-0.256c-0.405,0-0.767,0.085-1.08,0.256c-0.314,0.171-0.582,0.398-0.8,0.688
	c-0.22,0.288-0.388,0.616-0.505,0.984C103.498,340.385,103.439,340.761,103.439,341.145z"/>
<path fill="#333333" d="M112.16,333.225h1.504v5.008h0.031c0.277-0.438,0.641-0.772,1.089-1.008c0.447-0.234,0.96-0.352,1.535-0.352
	c1.057,0,1.829,0.309,2.32,0.928c0.491,0.618,0.736,1.478,0.736,2.576v4.848h-1.504v-4.224c0-0.96-0.123-1.676-0.368-2.146
	c-0.246-0.469-0.699-0.725-1.36-0.768c-0.427,0-0.798,0.082-1.111,0.248c-0.314,0.165-0.573,0.395-0.776,0.688
	c-0.203,0.294-0.353,0.648-0.448,1.064s-0.144,0.869-0.144,1.358v3.778h-1.504V333.225z"/>
<path fill="#333333" d="M128.191,344.889c-0.148,0.054-0.304,0.109-0.464,0.168s-0.338,0.114-0.536,0.168
	c-0.197,0.054-0.427,0.099-0.688,0.136c-0.262,0.037-0.559,0.058-0.889,0.058c-0.726,0-1.352-0.107-1.88-0.32
	c-0.527-0.213-0.966-0.512-1.312-0.896c-0.347-0.384-0.605-0.848-0.776-1.392s-0.256-1.146-0.256-1.808
	c0-0.608,0.091-1.163,0.272-1.664c0.182-0.502,0.439-0.938,0.775-1.306c0.336-0.366,0.738-0.652,1.208-0.854
	c0.47-0.203,0.992-0.304,1.568-0.304c0.683,0,1.253,0.116,1.712,0.352s0.827,0.558,1.104,0.968c0.277,0.411,0.478,0.899,0.601,1.464
	c0.123,0.565,0.184,1.175,0.184,1.824h-5.823c0,0.405,0.071,0.773,0.216,1.104c0.144,0.33,0.341,0.614,0.592,0.854
	c0.25,0.24,0.539,0.427,0.864,0.562c0.324,0.133,0.664,0.198,1.016,0.198c0.245,0,0.499-0.028,0.76-0.088
	c0.262-0.059,0.506-0.128,0.736-0.208c0.229-0.08,0.432-0.168,0.608-0.264c0.176-0.096,0.312-0.182,0.407-0.256V344.889
	L128.191,344.889z M127.215,340.36c0-0.309-0.045-0.603-0.136-0.88c-0.092-0.277-0.222-0.52-0.393-0.728s-0.384-0.371-0.64-0.488
	s-0.544-0.176-0.864-0.176c-0.374,0-0.689,0.068-0.952,0.208c-0.262,0.139-0.479,0.316-0.655,0.536
	c-0.177,0.219-0.311,0.461-0.4,0.728c-0.091,0.268-0.152,0.533-0.184,0.8H127.215z"/>
<path fill="#333333" d="M130.832,337.064h1.408v1.264h0.031c0.202-0.426,0.498-0.774,0.889-1.048
	c0.389-0.271,0.803-0.406,1.239-0.406c0.225,0,0.405,0.011,0.544,0.03c0.139,0.021,0.288,0.049,0.448,0.08v1.345
	c-0.139-0.054-0.28-0.091-0.424-0.111c-0.144-0.021-0.28-0.032-0.408-0.032c-0.672,0-1.21,0.299-1.616,0.896
	c-0.405,0.597-0.607,1.406-0.607,2.432v3.711h-1.504V337.064L130.832,337.064z"/>
<path fill="#333333" d="M143.312,344.889c-0.148,0.054-0.304,0.109-0.464,0.168s-0.338,0.114-0.536,0.168s-0.427,0.099-0.688,0.136
	c-0.263,0.037-0.559,0.058-0.889,0.058c-0.726,0-1.352-0.107-1.88-0.32c-0.527-0.213-0.966-0.512-1.312-0.896
	c-0.348-0.384-0.605-0.848-0.776-1.392s-0.256-1.146-0.256-1.808c0-0.608,0.091-1.163,0.272-1.664
	c0.182-0.502,0.439-0.938,0.775-1.306c0.336-0.366,0.738-0.652,1.208-0.854c0.469-0.203,0.992-0.304,1.568-0.304
	c0.683,0,1.253,0.116,1.712,0.352s0.827,0.558,1.104,0.968c0.277,0.411,0.478,0.899,0.601,1.464
	c0.123,0.565,0.184,1.175,0.184,1.824h-5.824c0,0.405,0.072,0.773,0.217,1.104c0.144,0.33,0.341,0.614,0.592,0.854
	c0.25,0.24,0.539,0.427,0.864,0.562c0.324,0.133,0.663,0.198,1.016,0.198c0.245,0,0.499-0.028,0.76-0.088
	c0.261-0.059,0.506-0.128,0.736-0.208c0.229-0.08,0.432-0.168,0.607-0.264c0.177-0.096,0.312-0.182,0.408-0.256V344.889z
	 M142.335,340.36c0-0.309-0.045-0.603-0.136-0.88c-0.092-0.277-0.222-0.52-0.393-0.728s-0.384-0.371-0.64-0.488
	s-0.544-0.176-0.864-0.176c-0.374,0-0.69,0.068-0.952,0.208c-0.262,0.139-0.479,0.316-0.656,0.536
	c-0.176,0.219-0.31,0.461-0.399,0.728c-0.091,0.268-0.152,0.533-0.185,0.8H142.335z"/>
<path fill="#333333" d="M145.951,337.064h1.456v1.296h0.031c0.225-0.469,0.581-0.834,1.072-1.096s1.024-0.392,1.6-0.392
	c1.057,0,1.829,0.309,2.32,0.928c0.491,0.618,0.736,1.478,0.736,2.576v4.848h-1.504v-4.224c0-0.96-0.123-1.676-0.368-2.146
	c-0.246-0.469-0.699-0.725-1.36-0.768c-0.427,0-0.798,0.082-1.111,0.248c-0.314,0.165-0.573,0.395-0.776,0.688
	c-0.203,0.294-0.353,0.648-0.448,1.064s-0.144,0.869-0.144,1.358v3.778h-1.504V337.064L145.951,337.064z"/>
<path fill="#333333" d="M160.911,338.44c-0.288-0.117-0.571-0.205-0.849-0.264c-0.277-0.06-0.539-0.088-0.784-0.088
	c-0.416,0-0.786,0.085-1.111,0.256c-0.326,0.171-0.601,0.398-0.824,0.688s-0.396,0.616-0.512,0.984
	c-0.117,0.368-0.177,0.744-0.177,1.128c0,0.363,0.051,0.727,0.152,1.088c0.103,0.363,0.261,0.691,0.48,0.984
	c0.219,0.293,0.501,0.53,0.848,0.712s0.76,0.271,1.24,0.271c0.256,0,0.529-0.04,0.824-0.119c0.293-0.079,0.557-0.194,0.792-0.345
	l0.111,1.345c-0.309,0.148-0.632,0.242-0.968,0.279s-0.643,0.058-0.92,0.058c-0.619,0-1.182-0.112-1.688-0.337
	s-0.943-0.53-1.312-0.921c-0.368-0.389-0.654-0.842-0.856-1.358c-0.203-0.519-0.304-1.069-0.304-1.656
	c0-0.618,0.099-1.189,0.296-1.712c0.197-0.523,0.48-0.974,0.849-1.353c0.367-0.379,0.805-0.675,1.312-0.889
	c0.506-0.213,1.075-0.318,1.704-0.318c0.309,0,0.637,0.03,0.984,0.096c0.347,0.062,0.626,0.139,0.84,0.224L160.911,338.44z"/>
<path fill="#333333" d="M169.087,344.889c-0.149,0.054-0.304,0.109-0.464,0.168s-0.338,0.114-0.536,0.168s-0.427,0.099-0.688,0.136
	s-0.558,0.058-0.888,0.058c-0.726,0-1.352-0.107-1.88-0.32s-0.966-0.512-1.312-0.896c-0.347-0.384-0.604-0.848-0.775-1.392
	s-0.256-1.146-0.256-1.808c0-0.608,0.091-1.163,0.271-1.664c0.183-0.502,0.44-0.938,0.776-1.306
	c0.336-0.366,0.738-0.652,1.208-0.854c0.469-0.203,0.992-0.304,1.567-0.304c0.684,0,1.253,0.116,1.712,0.352
	c0.46,0.235,0.827,0.558,1.104,0.968c0.277,0.411,0.477,0.899,0.6,1.464c0.123,0.565,0.185,1.175,0.185,1.824h-5.824
	c0,0.405,0.072,0.773,0.216,1.104c0.145,0.33,0.341,0.614,0.592,0.854c0.25,0.24,0.539,0.427,0.864,0.562
	c0.325,0.133,0.664,0.198,1.017,0.198c0.244,0,0.499-0.028,0.76-0.088c0.261-0.059,0.506-0.128,0.735-0.208s0.433-0.168,0.608-0.264
	s0.312-0.182,0.408-0.256V344.889z M168.111,340.36c0-0.309-0.045-0.603-0.136-0.88s-0.221-0.52-0.392-0.728
	s-0.384-0.371-0.641-0.488c-0.256-0.117-0.544-0.176-0.863-0.176c-0.374,0-0.69,0.068-0.952,0.208
	c-0.262,0.139-0.48,0.316-0.656,0.536c-0.176,0.219-0.31,0.461-0.4,0.728c-0.091,0.268-0.151,0.533-0.184,0.8H168.111z"/>
<path fill="#333333" d="M416.672,343.625c0.148,0.096,0.31,0.181,0.479,0.256c0.17,0.074,0.342,0.136,0.513,0.184
	c0.17,0.048,0.333,0.083,0.487,0.104c0.155,0.021,0.285,0.03,0.393,0.03c0.17,0,0.347-0.019,0.527-0.056
	c0.183-0.037,0.348-0.102,0.496-0.192c0.149-0.09,0.272-0.21,0.368-0.358c0.097-0.149,0.145-0.336,0.145-0.562
	c0-0.244-0.088-0.453-0.265-0.624c-0.176-0.17-0.395-0.327-0.655-0.472c-0.263-0.144-0.544-0.285-0.849-0.424
	c-0.304-0.139-0.587-0.304-0.848-0.496s-0.48-0.416-0.656-0.672s-0.264-0.576-0.264-0.96c0-0.427,0.075-0.798,0.224-1.112
	c0.149-0.313,0.353-0.576,0.608-0.784s0.56-0.361,0.912-0.464c0.352-0.101,0.729-0.15,1.136-0.15c0.352,0,0.677,0.03,0.976,0.096
	c0.3,0.062,0.598,0.139,0.896,0.224l-0.128,1.312c-0.085-0.055-0.2-0.104-0.344-0.152c-0.145-0.048-0.295-0.093-0.448-0.136
	c-0.155-0.043-0.304-0.074-0.448-0.096c-0.144-0.021-0.259-0.032-0.344-0.032c-0.384,0-0.72,0.08-1.008,0.239
	s-0.433,0.41-0.433,0.753c0,0.276,0.088,0.504,0.265,0.68c0.176,0.176,0.395,0.331,0.655,0.464c0.262,0.134,0.544,0.268,0.849,0.4
	c0.304,0.133,0.586,0.293,0.848,0.479c0.262,0.188,0.48,0.419,0.656,0.696c0.176,0.276,0.264,0.635,0.264,1.072
	c0,0.437-0.08,0.814-0.24,1.136c-0.159,0.318-0.374,0.584-0.64,0.792s-0.57,0.362-0.912,0.464s-0.694,0.152-1.056,0.152
	c-0.384,0-0.769-0.03-1.152-0.09c-0.384-0.059-0.747-0.178-1.088-0.358L416.672,343.625z"/>
<path fill="#333333" d="M422.896,347.433c0.096,0.032,0.206,0.062,0.328,0.088s0.248,0.04,0.376,0.04c0.331,0,0.61-0.099,0.84-0.296
	c0.23-0.197,0.416-0.416,0.561-0.656c0.144-0.24,0.245-0.467,0.304-0.68c0.059-0.214,0.088-0.342,0.088-0.384
	c0-0.086-0.035-0.217-0.104-0.394c-0.068-0.176-0.131-0.333-0.184-0.472l-2.768-7.616h1.647l2.192,6.752h0.031l2.24-6.752h1.521
	l-3.008,8.336c-0.14,0.396-0.288,0.792-0.448,1.192c-0.16,0.398-0.355,0.763-0.584,1.088c-0.229,0.325-0.516,0.589-0.856,0.792
	c-0.342,0.202-0.758,0.304-1.248,0.304c-0.246,0-0.442-0.014-0.592-0.04c-0.149-0.025-0.293-0.051-0.432-0.07L422.896,347.433z"/>
<path fill="#333333" d="M431.503,337.064h1.456v1.296h0.031c0.225-0.469,0.581-0.834,1.072-1.096s1.024-0.392,1.6-0.392
	c1.057,0,1.829,0.309,2.32,0.928c0.491,0.618,0.736,1.478,0.736,2.576v4.848h-1.504v-4.224c0-0.96-0.123-1.676-0.368-2.146
	c-0.246-0.469-0.699-0.725-1.36-0.768c-0.427,0-0.798,0.082-1.111,0.248c-0.314,0.165-0.573,0.395-0.776,0.688
	c-0.203,0.294-0.353,0.648-0.448,1.064s-0.144,0.869-0.144,1.358v3.778h-1.504V337.064z"/>
<path fill="#333333" d="M446.464,338.44c-0.288-0.117-0.571-0.205-0.849-0.264c-0.277-0.06-0.539-0.088-0.784-0.088
	c-0.415,0-0.786,0.085-1.111,0.256c-0.326,0.171-0.601,0.398-0.824,0.688s-0.395,0.616-0.512,0.984s-0.177,0.744-0.177,1.128
	c0,0.363,0.051,0.727,0.152,1.088c0.103,0.363,0.261,0.691,0.48,0.984c0.219,0.293,0.501,0.53,0.848,0.712s0.76,0.271,1.24,0.271
	c0.256,0,0.529-0.04,0.824-0.119c0.293-0.079,0.557-0.194,0.792-0.345l0.111,1.345c-0.309,0.148-0.632,0.242-0.968,0.279
	s-0.643,0.058-0.92,0.058c-0.619,0-1.182-0.112-1.688-0.337s-0.943-0.53-1.312-0.921c-0.368-0.389-0.654-0.842-0.856-1.358
	c-0.202-0.519-0.304-1.069-0.304-1.656c0-0.618,0.1-1.189,0.296-1.712c0.197-0.523,0.48-0.974,0.849-1.353
	c0.367-0.379,0.805-0.675,1.312-0.889c0.506-0.213,1.075-0.318,1.704-0.318c0.309,0,0.637,0.03,0.984,0.096
	c0.347,0.062,0.626,0.139,0.84,0.224L446.464,338.44z"/>
<path fill="#333333" d="M448.383,333.225h1.504v5.008h0.032c0.276-0.438,0.64-0.772,1.088-1.008c0.447-0.234,0.96-0.352,1.536-0.352
	c1.056,0,1.828,0.309,2.319,0.928c0.491,0.618,0.736,1.478,0.736,2.576v4.848h-1.504v-4.224c0-0.96-0.123-1.676-0.368-2.146
	c-0.246-0.469-0.699-0.725-1.36-0.768c-0.427,0-0.798,0.082-1.111,0.248c-0.314,0.165-0.573,0.395-0.776,0.688
	c-0.203,0.294-0.352,0.648-0.448,1.064c-0.096,0.416-0.144,0.869-0.144,1.358v3.778h-1.504V333.225L448.383,333.225z"/>
<path fill="#333333" d="M458.158,337.064h1.408v1.264h0.032c0.202-0.426,0.498-0.774,0.888-1.048c0.39-0.271,0.803-0.406,1.24-0.406
	c0.224,0,0.405,0.011,0.544,0.03c0.138,0.021,0.288,0.049,0.448,0.08v1.345c-0.14-0.054-0.28-0.091-0.424-0.111
	c-0.145-0.021-0.28-0.032-0.408-0.032c-0.672,0-1.21,0.299-1.616,0.896c-0.406,0.597-0.608,1.406-0.608,2.432v3.711h-1.504V337.064z
	"/>
<path fill="#333333" d="M463.839,341.145c0-0.618,0.099-1.189,0.296-1.712c0.196-0.522,0.479-0.974,0.848-1.352
	c0.368-0.38,0.805-0.676,1.312-0.89c0.507-0.213,1.074-0.318,1.703-0.318c0.619,0,1.185,0.105,1.696,0.318
	c0.512,0.214,0.949,0.51,1.312,0.89c0.362,0.378,0.643,0.828,0.84,1.352c0.197,0.522,0.296,1.094,0.296,1.712
	c0,0.587-0.102,1.139-0.304,1.656c-0.202,0.517-0.485,0.971-0.849,1.358c-0.362,0.391-0.8,0.696-1.312,0.922
	c-0.512,0.224-1.072,0.336-1.681,0.336c-0.618,0-1.182-0.112-1.688-0.336c-0.507-0.226-0.944-0.531-1.312-0.922
	c-0.367-0.389-0.652-0.842-0.855-1.358C463.94,342.283,463.839,341.731,463.839,341.145z M465.439,341.145
	c0,0.363,0.051,0.727,0.152,1.088c0.102,0.363,0.256,0.691,0.464,0.984s0.472,0.53,0.792,0.712c0.319,0.182,0.704,0.271,1.151,0.271
	c0.438,0,0.816-0.09,1.137-0.271c0.319-0.183,0.584-0.419,0.792-0.712s0.361-0.621,0.464-0.984c0.101-0.361,0.152-0.725,0.152-1.088
	c0-0.384-0.06-0.76-0.177-1.128c-0.118-0.368-0.282-0.696-0.496-0.984c-0.213-0.288-0.479-0.517-0.8-0.688s-0.677-0.256-1.072-0.256
	c-0.404,0-0.766,0.085-1.079,0.256c-0.314,0.171-0.582,0.398-0.801,0.688c-0.219,0.288-0.387,0.616-0.504,0.984
	S465.439,340.761,465.439,341.145z"/>
<path fill="#333333" d="M474.158,337.064h1.456v1.296h0.032c0.224-0.469,0.581-0.834,1.072-1.096s1.023-0.392,1.6-0.392
	c1.057,0,1.829,0.309,2.32,0.928c0.491,0.618,0.736,1.478,0.736,2.576v4.848h-1.505v-4.224c0-0.96-0.123-1.676-0.367-2.146
	c-0.246-0.469-0.699-0.725-1.36-0.768c-0.427,0-0.798,0.082-1.112,0.248c-0.313,0.165-0.573,0.395-0.775,0.688
	c-0.203,0.294-0.353,0.648-0.448,1.064s-0.145,0.869-0.145,1.358v3.778h-1.504V337.064z"/>
<path fill="#333333" d="M485.727,335.24h-1.696v-1.694h1.696V335.24z M484.127,337.064h1.504v8.16h-1.504V337.064z"/>
<path fill="#333333" d="M487.775,343.625c0.149,0.096,0.311,0.181,0.48,0.256c0.17,0.074,0.341,0.136,0.512,0.184
	c0.17,0.048,0.333,0.083,0.488,0.104c0.154,0.021,0.284,0.03,0.392,0.03c0.17,0,0.347-0.019,0.528-0.056s0.347-0.102,0.496-0.192
	c0.148-0.09,0.271-0.21,0.367-0.358c0.097-0.149,0.145-0.336,0.145-0.562c0-0.244-0.088-0.453-0.264-0.624
	c-0.177-0.17-0.396-0.327-0.656-0.472c-0.262-0.144-0.544-0.285-0.849-0.424c-0.304-0.139-0.587-0.304-0.848-0.496
	s-0.479-0.416-0.656-0.672c-0.176-0.256-0.264-0.576-0.264-0.96c0-0.427,0.075-0.798,0.224-1.112
	c0.149-0.313,0.353-0.576,0.608-0.784s0.56-0.361,0.912-0.464c0.352-0.101,0.729-0.15,1.136-0.15c0.353,0,0.677,0.03,0.977,0.096
	c0.299,0.062,0.597,0.139,0.896,0.224l-0.128,1.312c-0.085-0.055-0.2-0.104-0.344-0.152c-0.145-0.048-0.294-0.093-0.448-0.136
	c-0.155-0.043-0.304-0.074-0.448-0.096c-0.144-0.021-0.259-0.032-0.344-0.032c-0.384,0-0.72,0.08-1.008,0.239
	s-0.433,0.41-0.433,0.753c0,0.276,0.089,0.504,0.265,0.68s0.395,0.331,0.656,0.464c0.261,0.134,0.544,0.268,0.848,0.4
	s0.586,0.293,0.848,0.479c0.263,0.188,0.48,0.419,0.656,0.696c0.176,0.276,0.264,0.635,0.264,1.072c0,0.437-0.08,0.814-0.239,1.136
	c-0.16,0.318-0.374,0.584-0.641,0.792c-0.266,0.208-0.569,0.362-0.912,0.464c-0.342,0.102-0.693,0.152-1.056,0.152
	c-0.384,0-0.768-0.03-1.152-0.09c-0.384-0.059-0.747-0.178-1.088-0.358L487.775,343.625z"/>
<path fill="#333333" d="M494.99,337.641c0.373-0.224,0.784-0.408,1.232-0.552c0.448-0.146,0.933-0.216,1.456-0.216
	c1.173,0,2.013,0.281,2.52,0.848c0.506,0.564,0.761,1.408,0.761,2.528v3.376c0,0.469,0.005,0.822,0.016,1.062
	s0.025,0.419,0.048,0.536h-1.408v-1.056h-0.032c-0.085,0.128-0.202,0.264-0.352,0.406c-0.149,0.146-0.328,0.278-0.536,0.4
	c-0.208,0.123-0.448,0.227-0.72,0.312c-0.272,0.085-0.579,0.128-0.92,0.128c-0.438,0-0.84-0.05-1.208-0.146
	s-0.687-0.248-0.952-0.456s-0.472-0.472-0.616-0.792c-0.144-0.318-0.216-0.704-0.216-1.15c0-0.514,0.125-0.938,0.376-1.28
	c0.251-0.343,0.562-0.616,0.936-0.824s0.784-0.357,1.232-0.448c0.448-0.09,0.864-0.136,1.248-0.136c0.299,0,0.565,0,0.8,0
	s0.501,0.011,0.8,0.032c0-0.704-0.146-1.234-0.439-1.592c-0.294-0.358-0.819-0.536-1.576-0.536c-0.427,0-0.851,0.073-1.272,0.224
	c-0.421,0.15-0.786,0.354-1.096,0.608L494.99,337.641z M499.454,341.337c-0.159,0-0.319-0.006-0.479-0.018
	c-0.16-0.01-0.32-0.016-0.48-0.016c-0.203,0-0.464,0.014-0.783,0.04c-0.32,0.025-0.633,0.094-0.937,0.2
	c-0.304,0.105-0.566,0.264-0.784,0.472c-0.219,0.208-0.328,0.493-0.328,0.855c0,0.214,0.049,0.402,0.145,0.567
	c0.096,0.166,0.216,0.304,0.359,0.416c0.145,0.112,0.308,0.197,0.488,0.256c0.182,0.06,0.357,0.088,0.528,0.088
	c0.747,0,1.312-0.205,1.696-0.614c0.384-0.411,0.575-0.92,0.575-1.528V341.337z"/>
<path fill="#333333" d="M507.839,338.28h-2.16v4.464c0,0.48,0.125,0.844,0.376,1.09c0.25,0.244,0.546,0.366,0.888,0.366
	c0.234,0,0.435-0.028,0.601-0.088c0.166-0.059,0.307-0.125,0.424-0.198v1.278c-0.171,0.055-0.366,0.104-0.584,0.152
	c-0.22,0.048-0.451,0.072-0.696,0.072c-0.779,0-1.392-0.189-1.84-0.568s-0.672-0.979-0.672-1.8v-4.77h-1.84v-1.216h1.84v-1.888
	l1.504-0.48v2.368h2.16V338.28z"/>
<path fill="#333333" d="M511.519,335.24h-1.696v-1.694h1.696V335.24z M509.919,337.064h1.504v8.16h-1.504V337.064z"/>
<path fill="#333333" d="M513.631,341.145c0-0.618,0.098-1.189,0.296-1.712c0.196-0.522,0.479-0.974,0.848-1.352
	c0.368-0.38,0.806-0.676,1.312-0.89c0.508-0.213,1.074-0.318,1.705-0.318c0.617,0,1.184,0.105,1.694,0.318
	c0.513,0.214,0.949,0.51,1.312,0.89c0.361,0.378,0.643,0.828,0.84,1.352s0.296,1.094,0.296,1.712c0,0.587-0.102,1.139-0.304,1.656
	c-0.203,0.518-0.486,0.971-0.849,1.358c-0.362,0.391-0.801,0.696-1.312,0.922c-0.512,0.224-1.072,0.336-1.68,0.336
	c-0.619,0-1.183-0.112-1.688-0.336c-0.507-0.226-0.944-0.531-1.312-0.922c-0.369-0.389-0.654-0.842-0.856-1.358
	C513.733,342.283,513.631,341.731,513.631,341.145z M515.23,341.145c0,0.363,0.051,0.727,0.152,1.088
	c0.102,0.363,0.256,0.691,0.464,0.984s0.472,0.53,0.792,0.712c0.319,0.182,0.704,0.271,1.151,0.271c0.438,0,0.815-0.09,1.137-0.271
	c0.318-0.183,0.584-0.419,0.792-0.712s0.361-0.621,0.464-0.984c0.101-0.361,0.15-0.725,0.15-1.088c0-0.384-0.059-0.76-0.176-1.128
	s-0.282-0.696-0.496-0.984c-0.213-0.288-0.479-0.517-0.8-0.688c-0.319-0.171-0.677-0.256-1.071-0.256
	c-0.405,0-0.766,0.085-1.08,0.256c-0.313,0.171-0.582,0.398-0.801,0.688s-0.387,0.616-0.504,0.984S515.23,340.761,515.23,341.145z"
	/>
<path fill="#333333" d="M523.95,337.064h1.455v1.296h0.033c0.224-0.469,0.58-0.834,1.071-1.096c0.49-0.262,1.023-0.392,1.601-0.392
	c1.057,0,1.828,0.309,2.319,0.928c0.491,0.618,0.736,1.478,0.736,2.576v4.848h-1.505v-4.224c0-0.96-0.123-1.676-0.367-2.146
	c-0.246-0.469-0.699-0.725-1.359-0.768c-0.428,0-0.799,0.082-1.113,0.248c-0.313,0.165-0.571,0.395-0.774,0.688
	c-0.203,0.294-0.353,0.648-0.447,1.064c-0.097,0.416-0.146,0.869-0.146,1.358v3.778h-1.504V337.064L523.95,337.064z"/>
<path fill="#333333" d="M739.672,343.625c0.148,0.096,0.31,0.181,0.479,0.256c0.17,0.074,0.341,0.136,0.512,0.184
	s0.333,0.083,0.488,0.104c0.154,0.021,0.285,0.03,0.393,0.03c0.171,0,0.347-0.019,0.527-0.056c0.182-0.037,0.347-0.102,0.496-0.192
	c0.148-0.09,0.271-0.21,0.367-0.358c0.097-0.149,0.145-0.336,0.145-0.562c0-0.244-0.088-0.453-0.264-0.624
	c-0.176-0.17-0.395-0.327-0.656-0.472c-0.262-0.144-0.544-0.285-0.848-0.424c-0.305-0.139-0.588-0.304-0.849-0.496
	c-0.262-0.192-0.479-0.416-0.655-0.672c-0.177-0.256-0.265-0.576-0.265-0.96c0-0.427,0.074-0.798,0.224-1.112
	c0.149-0.313,0.353-0.576,0.607-0.784s0.561-0.361,0.912-0.464c0.354-0.101,0.73-0.15,1.137-0.15c0.352,0,0.678,0.03,0.977,0.096
	c0.299,0.062,0.597,0.139,0.896,0.224l-0.128,1.312c-0.086-0.055-0.199-0.104-0.344-0.152s-0.294-0.093-0.448-0.136
	s-0.304-0.074-0.447-0.096c-0.145-0.021-0.258-0.032-0.345-0.032c-0.384,0-0.721,0.08-1.008,0.239
	c-0.288,0.159-0.432,0.41-0.432,0.753c0,0.276,0.088,0.504,0.264,0.68s0.396,0.331,0.656,0.464c0.261,0.134,0.543,0.268,0.848,0.4
	s0.586,0.293,0.849,0.479c0.262,0.187,0.479,0.419,0.655,0.696c0.177,0.276,0.265,0.635,0.265,1.072c0,0.437-0.08,0.814-0.24,1.136
	c-0.16,0.318-0.373,0.584-0.64,0.792c-0.268,0.208-0.57,0.362-0.911,0.464c-0.342,0.102-0.694,0.152-1.058,0.152
	c-0.384,0-0.768-0.03-1.151-0.09c-0.384-0.059-0.746-0.178-1.088-0.358L739.672,343.625z"/>
<path fill="#333333" d="M751.688,338.44c-0.288-0.117-0.57-0.205-0.848-0.264c-0.278-0.06-0.539-0.088-0.784-0.088
	c-0.416,0-0.786,0.085-1.112,0.256c-0.325,0.171-0.6,0.398-0.824,0.688c-0.224,0.288-0.395,0.616-0.512,0.984
	s-0.176,0.744-0.176,1.128c0,0.363,0.051,0.727,0.151,1.088c0.103,0.363,0.262,0.691,0.479,0.984s0.501,0.53,0.849,0.712
	c0.347,0.182,0.761,0.271,1.24,0.271c0.256,0,0.529-0.04,0.823-0.119s0.558-0.194,0.792-0.345l0.11,1.345
	c-0.309,0.148-0.631,0.242-0.967,0.279s-0.643,0.058-0.92,0.058c-0.619,0-1.182-0.112-1.688-0.337
	c-0.507-0.225-0.944-0.53-1.312-0.921c-0.369-0.389-0.653-0.842-0.855-1.358c-0.202-0.518-0.305-1.069-0.305-1.656
	c0-0.618,0.099-1.189,0.295-1.712c0.197-0.523,0.48-0.974,0.85-1.353c0.368-0.379,0.806-0.675,1.312-0.889
	c0.507-0.213,1.075-0.318,1.705-0.318c0.31,0,0.638,0.03,0.983,0.096c0.347,0.062,0.626,0.139,0.84,0.224L751.688,338.44z"/>
<path fill="#333333" d="M753.607,337.064h1.408v1.264h0.032c0.201-0.426,0.498-0.774,0.888-1.048
	c0.389-0.271,0.803-0.406,1.24-0.406c0.224,0,0.404,0.011,0.544,0.03c0.138,0.021,0.288,0.049,0.447,0.08v1.345
	c-0.139-0.054-0.279-0.091-0.424-0.111c-0.145-0.021-0.279-0.032-0.408-0.032c-0.672,0-1.211,0.299-1.615,0.896
	c-0.405,0.597-0.608,1.406-0.608,2.432v3.711h-1.504V337.064L753.607,337.064z"/>
<path fill="#333333" d="M766.088,344.889c-0.149,0.054-0.306,0.109-0.466,0.168c-0.158,0.059-0.338,0.114-0.534,0.168
	c-0.197,0.054-0.428,0.099-0.688,0.136c-0.262,0.037-0.559,0.058-0.889,0.058c-0.727,0-1.353-0.107-1.88-0.32
	c-0.528-0.213-0.967-0.512-1.312-0.896c-0.348-0.384-0.604-0.848-0.775-1.392c-0.172-0.544-0.258-1.146-0.258-1.808
	c0-0.608,0.093-1.163,0.272-1.664c0.182-0.502,0.439-0.938,0.776-1.306c0.336-0.366,0.737-0.652,1.207-0.854
	c0.471-0.203,0.991-0.304,1.567-0.304c0.685,0,1.254,0.116,1.713,0.352c0.458,0.234,0.826,0.558,1.104,0.968
	c0.276,0.411,0.477,0.899,0.6,1.464c0.123,0.565,0.186,1.175,0.186,1.824h-5.824c0,0.405,0.072,0.773,0.216,1.104
	c0.146,0.33,0.342,0.614,0.592,0.854c0.251,0.24,0.539,0.427,0.864,0.562c0.325,0.133,0.664,0.198,1.017,0.198
	c0.244,0,0.498-0.028,0.761-0.088c0.262-0.059,0.506-0.128,0.735-0.208s0.433-0.168,0.607-0.264s0.312-0.182,0.408-0.256
	L766.088,344.889L766.088,344.889z M765.111,340.36c0-0.309-0.045-0.603-0.136-0.88s-0.222-0.52-0.393-0.728
	s-0.385-0.371-0.641-0.488s-0.543-0.176-0.863-0.176c-0.374,0-0.69,0.068-0.951,0.208c-0.263,0.139-0.479,0.316-0.656,0.536
	c-0.176,0.219-0.311,0.461-0.399,0.728c-0.092,0.268-0.151,0.533-0.185,0.8H765.111z"/>
<path fill="#333333" d="M774.983,344.889c-0.148,0.054-0.304,0.109-0.464,0.168s-0.339,0.114-0.536,0.168
	c-0.198,0.054-0.427,0.099-0.688,0.136c-0.262,0.037-0.558,0.058-0.889,0.058c-0.726,0-1.353-0.107-1.88-0.32
	c-0.528-0.213-0.966-0.512-1.312-0.896c-0.347-0.384-0.605-0.848-0.775-1.392c-0.171-0.544-0.256-1.146-0.256-1.808
	c0-0.608,0.09-1.163,0.271-1.664c0.183-0.502,0.44-0.938,0.776-1.306c0.336-0.366,0.738-0.652,1.208-0.854
	c0.469-0.203,0.992-0.304,1.568-0.304c0.682,0,1.253,0.116,1.711,0.352c0.459,0.234,0.827,0.558,1.104,0.968
	c0.277,0.411,0.479,0.899,0.602,1.464c0.122,0.565,0.184,1.175,0.184,1.824h-5.824c0,0.405,0.072,0.773,0.216,1.104
	c0.145,0.33,0.342,0.614,0.594,0.854c0.25,0.24,0.538,0.427,0.862,0.562c0.325,0.133,0.664,0.198,1.017,0.198
	c0.246,0,0.499-0.028,0.761-0.088c0.261-0.059,0.507-0.128,0.735-0.208s0.433-0.168,0.607-0.264
	c0.178-0.096,0.312-0.182,0.408-0.256V344.889z M774.008,340.36c0-0.309-0.046-0.603-0.138-0.88
	c-0.091-0.277-0.221-0.52-0.392-0.728s-0.384-0.371-0.64-0.488c-0.257-0.117-0.546-0.176-0.865-0.176
	c-0.373,0-0.689,0.068-0.951,0.208c-0.262,0.139-0.479,0.316-0.656,0.536c-0.176,0.219-0.31,0.461-0.399,0.728
	c-0.091,0.268-0.151,0.533-0.185,0.8H774.008z"/>
<path fill="#333333" d="M777.622,337.064h1.457v1.296h0.031c0.226-0.469,0.582-0.834,1.072-1.096s1.022-0.392,1.6-0.392
	c1.058,0,1.83,0.309,2.32,0.928c0.49,0.618,0.736,1.478,0.736,2.576v4.848h-1.505v-4.224c0-0.96-0.122-1.676-0.367-2.146
	c-0.245-0.469-0.698-0.725-1.36-0.768c-0.426,0-0.797,0.082-1.111,0.248c-0.313,0.165-0.573,0.395-0.775,0.688
	c-0.202,0.294-0.354,0.648-0.448,1.064s-0.144,0.869-0.144,1.358v3.778h-1.506V337.064z"/>
<path fill="#333333" d="M791.239,343.625c0.149,0.096,0.311,0.181,0.479,0.256c0.171,0.074,0.342,0.136,0.513,0.184
	s0.333,0.083,0.487,0.104c0.155,0.021,0.285,0.03,0.393,0.03c0.17,0,0.347-0.019,0.527-0.056c0.182-0.037,0.348-0.102,0.496-0.192
	c0.149-0.09,0.271-0.21,0.369-0.358c0.096-0.149,0.144-0.336,0.144-0.562c0-0.244-0.088-0.453-0.265-0.624
	c-0.177-0.17-0.396-0.327-0.655-0.472c-0.262-0.144-0.544-0.285-0.85-0.424c-0.304-0.139-0.586-0.304-0.848-0.496
	s-0.479-0.416-0.656-0.672c-0.176-0.256-0.264-0.576-0.264-0.96c0-0.427,0.074-0.798,0.225-1.112
	c0.148-0.313,0.353-0.576,0.607-0.784s0.561-0.361,0.912-0.464c0.352-0.101,0.729-0.15,1.136-0.15c0.354,0,0.677,0.03,0.977,0.096
	c0.299,0.062,0.598,0.139,0.896,0.224l-0.128,1.312c-0.085-0.055-0.2-0.104-0.344-0.152c-0.145-0.048-0.294-0.093-0.448-0.136
	s-0.305-0.074-0.447-0.096c-0.145-0.021-0.26-0.032-0.345-0.032c-0.384,0-0.72,0.08-1.008,0.239s-0.434,0.41-0.434,0.753
	c0,0.276,0.089,0.504,0.266,0.68c0.176,0.176,0.395,0.331,0.655,0.464c0.262,0.134,0.545,0.268,0.849,0.4s0.587,0.293,0.848,0.479
	c0.263,0.188,0.48,0.419,0.656,0.696c0.176,0.276,0.265,0.635,0.265,1.072c0,0.437-0.08,0.814-0.239,1.136
	c-0.16,0.318-0.374,0.584-0.642,0.792c-0.267,0.208-0.569,0.362-0.912,0.464c-0.342,0.102-0.692,0.152-1.056,0.152
	c-0.384,0-0.769-0.03-1.151-0.09c-0.385-0.059-0.748-0.178-1.089-0.358L791.239,343.625z"/>
<path fill="#333333" d="M798.07,333.225h1.505v5.008h0.032c0.277-0.438,0.64-0.772,1.088-1.008c0.447-0.234,0.959-0.352,1.535-0.352
	c1.057,0,1.83,0.309,2.32,0.928c0.489,0.618,0.735,1.478,0.735,2.576v4.848h-1.504v-4.224c0-0.96-0.123-1.676-0.368-2.146
	c-0.244-0.469-0.697-0.725-1.359-0.768c-0.426,0-0.797,0.082-1.111,0.248c-0.313,0.165-0.574,0.395-0.776,0.688
	c-0.201,0.294-0.353,0.648-0.447,1.064c-0.096,0.416-0.145,0.869-0.145,1.358v3.778h-1.505V333.225z"/>
<path fill="#333333" d="M808.231,337.641c0.373-0.224,0.784-0.408,1.231-0.552c0.448-0.146,0.934-0.216,1.457-0.216
	c1.173,0,2.013,0.281,2.52,0.848c0.506,0.564,0.76,1.408,0.76,2.528v3.376c0,0.469,0.006,0.822,0.017,1.062
	c0.012,0.24,0.026,0.419,0.049,0.536h-1.408v-1.056h-0.032c-0.085,0.128-0.202,0.264-0.353,0.406
	c-0.148,0.146-0.327,0.278-0.535,0.4c-0.208,0.123-0.448,0.227-0.721,0.312c-0.271,0.085-0.578,0.128-0.92,0.128
	c-0.438,0-0.841-0.05-1.207-0.146c-0.369-0.096-0.687-0.248-0.953-0.456s-0.471-0.472-0.615-0.792
	c-0.145-0.318-0.217-0.704-0.217-1.15c0-0.514,0.126-0.938,0.377-1.28c0.25-0.342,0.562-0.616,0.936-0.824s0.784-0.357,1.232-0.448
	c0.447-0.09,0.863-0.136,1.248-0.136c0.299,0,0.563,0,0.8,0c0.234,0,0.501,0.011,0.8,0.032c0-0.704-0.146-1.234-0.438-1.592
	c-0.294-0.357-0.819-0.536-1.576-0.536c-0.428,0-0.853,0.073-1.272,0.224s-0.785,0.354-1.096,0.608L808.231,337.641z
	 M812.695,341.337c-0.16,0-0.319-0.006-0.479-0.018c-0.16-0.01-0.319-0.016-0.479-0.016c-0.202,0-0.464,0.014-0.784,0.04
	c-0.319,0.025-0.632,0.094-0.936,0.2c-0.305,0.105-0.566,0.264-0.784,0.472c-0.219,0.208-0.328,0.493-0.328,0.855
	c0,0.214,0.048,0.402,0.145,0.567c0.097,0.166,0.217,0.304,0.359,0.416c0.144,0.112,0.308,0.197,0.488,0.256
	c0.181,0.06,0.356,0.088,0.528,0.088c0.746,0,1.312-0.205,1.694-0.614c0.386-0.411,0.576-0.92,0.576-1.528V341.337z"/>
<path fill="#333333" d="M816.741,337.064h1.408v1.264h0.033c0.201-0.426,0.498-0.774,0.887-1.048
	c0.391-0.271,0.804-0.406,1.24-0.406c0.225,0,0.406,0.011,0.545,0.03c0.138,0.021,0.287,0.049,0.447,0.08v1.345
	c-0.14-0.054-0.279-0.091-0.424-0.111c-0.146-0.021-0.279-0.032-0.408-0.032c-0.672,0-1.211,0.299-1.615,0.896
	c-0.406,0.597-0.608,1.406-0.608,2.432v3.711h-1.505V337.064L816.741,337.064z"/>
<path fill="#333333" d="M824.759,335.24h-1.696v-1.694h1.696V335.24z M823.158,337.064h1.504v8.16h-1.504V337.064z"/>
<path fill="#333333" d="M827.413,337.064h1.457v1.296h0.031c0.226-0.469,0.582-0.834,1.072-1.096s1.022-0.392,1.6-0.392
	c1.058,0,1.83,0.309,2.32,0.928c0.49,0.618,0.736,1.478,0.736,2.576v4.848h-1.505v-4.224c0-0.96-0.122-1.676-0.367-2.146
	c-0.245-0.469-0.698-0.725-1.36-0.768c-0.426,0-0.797,0.082-1.111,0.248c-0.313,0.165-0.573,0.395-0.775,0.688
	c-0.202,0.294-0.354,0.648-0.448,1.064s-0.144,0.869-0.144,1.358v3.778h-1.506V337.064z"/>
<path fill="#333333" d="M844.406,344.873c0,1.235-0.336,2.196-1.009,2.88c-0.672,0.683-1.738,1.022-3.199,1.022
	c-0.213,0-0.424-0.008-0.633-0.022c-0.207-0.018-0.429-0.046-0.663-0.088c-0.234-0.044-0.482-0.101-0.744-0.169
	c-0.262-0.069-0.558-0.162-0.888-0.279l0.16-1.394c0.287,0.128,0.551,0.24,0.791,0.336c0.24,0.098,0.473,0.175,0.696,0.232
	c0.223,0.058,0.453,0.102,0.688,0.128s0.49,0.04,0.768,0.04c0.802,0,1.423-0.251,1.864-0.752c0.442-0.502,0.664-1.185,0.664-2.048
	v-0.8h-0.032c-0.319,0.427-0.726,0.743-1.216,0.951c-0.491,0.208-0.997,0.312-1.521,0.312c-0.586,0-1.099-0.109-1.535-0.328
	c-0.438-0.219-0.801-0.515-1.088-0.888c-0.289-0.373-0.504-0.8-0.648-1.28c-0.145-0.479-0.217-0.986-0.217-1.521
	c0-0.521,0.075-1.043,0.225-1.561c0.149-0.517,0.376-0.98,0.681-1.392s0.683-0.744,1.137-1c0.453-0.257,0.988-0.385,1.607-0.385
	c0.726,0,1.299,0.122,1.721,0.367c0.421,0.246,0.744,0.593,0.967,1.04h0.033v-1.216h1.392V344.873L844.406,344.873z M840.52,344.009
	c0.352,0,0.674-0.072,0.968-0.216c0.293-0.146,0.544-0.343,0.752-0.594c0.208-0.25,0.37-0.544,0.487-0.88s0.177-0.694,0.177-1.08
	c0-0.426-0.048-0.829-0.144-1.208c-0.098-0.378-0.246-0.712-0.449-1c-0.202-0.288-0.453-0.517-0.752-0.688s-0.645-0.256-1.039-0.256
	c-0.385,0-0.718,0.093-1,0.278c-0.283,0.188-0.518,0.428-0.705,0.722c-0.186,0.293-0.327,0.617-0.424,0.976
	c-0.096,0.357-0.145,0.712-0.145,1.064c0,0.384,0.055,0.749,0.16,1.096c0.106,0.347,0.256,0.653,0.448,0.92
	c0.191,0.267,0.429,0.479,0.711,0.632C839.85,343.932,840.166,344.009,840.52,344.009z"/>
<rect x="90" y="419.225" fill="none" width="200" height="143"/>
<path fill="#333333" d="M94.407,505.578h87.109v47.694H94.407V505.578z M90,557.675h95.923v-56.499H90V557.675z"/>
<rect x="90" y="419.225" fill="none" width="200" height="143"/>
<polygon fill="#333333" points="123.051,558.556 115.56,562.225 160.363,562.225 152.872,558.556 "/>
<rect x="90" y="419.225" fill="none" width="200" height="143"/>
<path fill="#333333" d="M217.433,458.113h56.261v-38.889h-56.261V458.113z M269.288,453.712H221.84v-30.085h47.448V453.712z"/>
<rect x="90" y="419.225" fill="none" width="200" height="143"/>
<polygon fill="#333333" points="273.694,458.994 217.433,458.994 201.128,462.664 290,462.664 "/>
<rect x="90" y="419.225" fill="none" width="200" height="143"/>
<polygon fill="#333333" points="249.904,463.544 249.904,464.277 241.223,464.277 241.223,463.544 201.127,463.544 201.127,467.065 
	290,467.065 290,463.544 "/>
<rect x="90" y="419.225" fill="none" width="200" height="143"/>
<rect x="90" y="419.225" fill="none" width="200" height="143"/>
<path fill="#333333" d="M242.405,559.803h38.929v-56.206h-38.929V559.803z M263.118,557.602c0,0.689-0.561,1.248-1.249,1.248
	c-0.689,0-1.249-0.559-1.249-1.248c0-0.688,0.559-1.247,1.249-1.247C262.559,556.354,263.118,556.912,263.118,557.602
	 M276.926,555.4h-30.114V508h30.114V555.4z"/>
<rect x="90" y="419.225" fill="none" width="200" height="143"/>
<path fill="#333333" d="M128.34,453.712h16.599v-30.085H128.34V453.712z M136.64,452.795c-0.688,0-1.249-0.56-1.249-1.248
	c0-0.689,0.561-1.248,1.249-1.248c0.689,0,1.249,0.559,1.249,1.248C137.889,452.235,137.329,452.795,136.64,452.795
	 M143.177,449.309h-13.074v-21.279h13.074V449.309z"/>
<rect x="90" y="419.225" fill="none" width="200" height="143"/>
<rect x="256.845" y="473.963" fill="#F39200" width="2.644" height="19.699"/>
<rect x="90" y="419.225" fill="none" width="200" height="143"/>
<polygon fill="#F39200" points="253.684,488.4 258.167,492.882 262.649,488.4 262.649,492.203 258.167,496.682 253.684,492.203 "/>
<rect x="90" y="419.225" fill="none" width="200" height="143"/>
<rect x="200.892" y="472.261" transform="matrix(-0.7075 -0.7067 0.7067 -0.7075 1.3968 973.7208)" fill="#F39200" width="2.643" height="28.621"/>
<rect x="90" y="419.225" fill="none" width="200" height="143"/>
<polygon fill="#F39200" points="192.626,489.797 192.624,496.133 198.966,496.13 196.274,498.818 189.935,498.818 189.935,492.485 
	"/>
<rect x="90" y="419.225" fill="none" width="200" height="143"/>
<rect x="164.846" y="437.349" fill="#F39200" width="28.635" height="2.642"/>
<rect x="90" y="419.225" fill="none" width="200" height="143"/>
<polygon fill="#F39200" points="170.112,434.191 165.627,438.67 170.112,443.147 166.306,443.147 161.823,438.67 166.306,434.191 
	"/>
<rect x="412" y="419.225" fill="none" width="200" height="143"/>
<path fill="#333333" d="M416.407,505.578h87.109v47.694h-87.109V505.578L416.407,505.578z M412,557.675h95.923v-56.499H412V557.675z
	"/>
<rect x="412" y="419.225" fill="none" width="200" height="143"/>
<polygon fill="#333333" points="445.051,558.556 437.56,562.225 482.363,562.225 474.871,558.556 "/>
<rect x="412" y="419.225" fill="none" width="200" height="143"/>
<path fill="#333333" d="M539.434,458.113h56.261v-38.889h-56.261V458.113z M591.287,453.712H543.84v-30.085h47.447V453.712z"/>
<rect x="412" y="419.225" fill="none" width="200" height="143"/>
<polygon fill="#333333" points="595.694,458.994 539.434,458.994 523.128,462.664 612,462.664 "/>
<rect x="412" y="419.225" fill="none" width="200" height="143"/>
<polygon fill="#333333" points="571.904,463.544 571.904,464.277 563.223,464.277 563.223,463.544 523.128,463.544 523.128,467.065 
	612,467.065 612,463.544 "/>
<rect x="412" y="419.225" fill="none" width="200" height="143"/>
<rect x="412" y="419.225" fill="none" width="200" height="143"/>
<path fill="#333333" d="M564.405,559.803h38.928v-56.206h-38.928V559.803z M585.117,557.602c0,0.689-0.56,1.248-1.249,1.248
	c-0.688,0-1.249-0.559-1.249-1.248c0-0.688,0.561-1.247,1.249-1.247C584.558,556.354,585.117,556.912,585.117,557.602
	 M598.926,555.4h-30.113V508h30.113V555.4z"/>
<rect x="412" y="419.225" fill="none" width="200" height="143"/>
<path fill="#333333" d="M450.34,453.712h16.599v-30.085H450.34V453.712z M458.64,452.795c-0.689,0-1.249-0.56-1.249-1.248
	c0-0.689,0.56-1.248,1.249-1.248c0.688,0,1.249,0.559,1.249,1.248C459.889,452.235,459.328,452.795,458.64,452.795 M465.177,449.309
	h-13.074v-21.279h13.074V449.309z"/>
<rect x="412" y="419.225" fill="none" width="200" height="143"/>
<rect x="457.317" y="460.828" fill="#F39200" width="2.646" height="28.606"/>
<rect x="412" y="419.225" fill="none" width="200" height="143"/>
<polygon fill="#F39200" points="454.156,484.174 458.639,488.654 463.121,484.174 463.121,487.976 458.639,492.453 454.156,487.976 
	"/>
<rect x="412" y="419.225" fill="none" width="200" height="143"/>
<polygon fill="#F39200" points="515.007,497.618 513.138,495.751 533.385,475.523 535.254,477.391 "/>
<rect x="412" y="419.225" fill="none" width="200" height="143"/>
<polygon fill="#F39200" points="514.625,489.798 514.625,496.134 520.966,496.131 518.274,498.819 511.936,498.819 511.936,492.486 
	"/>
<rect x="412" y="419.225" fill="none" width="200" height="143"/>
<rect x="521.514" y="530.38" fill="#F39200" width="28.635" height="2.642"/>
<rect x="412" y="419.225" fill="none" width="200" height="143"/>
<polygon fill="#F39200" points="526.78,527.222 522.295,531.7 526.78,536.179 522.974,536.179 518.49,531.7 522.974,527.222 "/>
<rect x="734" y="419.225" fill="none" width="200" height="144"/>
<path fill="#333333" d="M738.406,505.637h87.109v47.727h-87.109V505.637z M734,557.769h95.924V501.23H734V557.769z"/>
<rect x="734" y="419.225" fill="none" width="200" height="144"/>
<polygon fill="#333333" points="796.87,558.65 767.051,558.65 759.561,562.321 804.363,562.321 "/>
<rect x="734" y="419.225" fill="none" width="200" height="144"/>
<path fill="#333333" d="M861.434,458.141h56.261v-38.916h-56.261V458.141z M913.287,453.734H865.84v-30.104h47.447V453.734z"/>
<rect x="734" y="419.225" fill="none" width="200" height="144"/>
<polygon fill="#333333" points="917.694,459.021 861.434,459.021 845.128,462.692 934,462.692 "/>
<rect x="734" y="419.225" fill="none" width="200" height="144"/>
<polygon fill="#333333" points="893.904,463.573 893.904,464.308 885.223,464.308 885.223,463.573 845.128,463.573 845.128,467.099 
	934,467.099 934,463.573 "/>
<rect x="734" y="419.225" fill="none" width="200" height="144"/>
<rect x="734" y="419.225" fill="none" width="200" height="144"/>
<path fill="#333333" d="M886.405,559.898h38.928v-56.245h-38.928V559.898z M907.117,557.695c0,0.69-0.56,1.249-1.249,1.249
	c-0.688,0-1.249-0.559-1.249-1.249c0-0.688,0.561-1.248,1.249-1.248C906.558,556.447,907.117,557.006,907.117,557.695
	 M920.926,555.493h-30.113V508.06h30.113V555.493z"/>
<rect x="734" y="419.225" fill="none" width="200" height="144"/>
<path fill="#333333" d="M772.34,453.734h16.6v-30.104h-16.6V453.734z M780.64,452.816c-0.689,0-1.249-0.559-1.249-1.249
	c0-0.689,0.56-1.249,1.249-1.249c0.688,0,1.249,0.56,1.249,1.249C781.889,452.258,781.328,452.816,780.64,452.816 M787.177,449.328
	h-13.074v-21.293h13.074V449.328z"/>
<rect x="734" y="419.225" fill="none" width="200" height="144"/>
<path fill="#F39200" d="M856.704,427.94c-0.682-0.229-1.372-0.45-2.058-0.655l0.762-2.531c0.711,0.214,1.432,0.443,2.14,0.681
	L856.704,427.94z"/>
<rect x="734" y="419.225" fill="none" width="200" height="144"/>
<path fill="#F39200" d="M801.401,433.25l-1.307-2.299c1.376-0.781,2.796-1.525,4.222-2.212l1.146,2.382
	C804.092,431.781,802.725,432.498,801.401,433.25 M809.659,429.271l-0.982-2.453c1.47-0.589,2.978-1.135,4.481-1.622l0.814,2.516
	C812.526,428.18,811.074,428.703,809.659,429.271 M818.383,426.445l-0.644-2.564c1.535-0.385,3.104-0.723,4.66-1.002l0.468,2.603
	C821.368,425.75,819.86,426.074,818.383,426.445 M850.213,426.113c-1.484-0.339-3-0.631-4.504-0.869l0.412-2.61
	c1.562,0.247,3.139,0.551,4.681,0.903L850.213,426.113z M827.408,424.824l-0.291-2.627c1.571-0.175,3.169-0.298,4.751-0.367
	l0.114,2.642C830.461,424.537,828.922,424.656,827.408,424.824 M841.156,424.682c-1.516-0.137-3.058-0.223-4.582-0.257l0.062-2.644
	c1.583,0.036,3.184,0.127,4.757,0.268L841.156,424.682z"/>
<rect x="734" y="419.225" fill="none" width="200" height="144"/>
<path fill="#F39200" d="M795.701,436.871l-1.526-2.158c0.608-0.432,1.231-0.857,1.853-1.268l1.458,2.206
	C796.889,436.046,796.287,436.456,795.701,436.871"/>
<rect x="734" y="419.225" fill="none" width="200" height="144"/>
<path fill="#F39200" d="M905.513,498.339l-2.636-0.216c0.059-0.713,0.106-1.438,0.144-2.157l2.641,0.134
	C905.622,496.846,905.573,497.599,905.513,498.339"/>
<rect x="734" y="419.225" fill="none" width="200" height="144"/>
<path fill="#F39200" d="M903.104,491.709c-0.017-1.42-0.077-2.853-0.181-4.254l2.638-0.194c0.107,1.457,0.17,2.942,0.188,4.418
	L903.104,491.709z M902.479,483.221c-0.19-1.402-0.43-2.814-0.707-4.198l2.592-0.521c0.29,1.438,0.537,2.904,0.735,4.36
	L902.479,483.221z"/>
<rect x="734" y="419.225" fill="none" width="200" height="144"/>
<path fill="#F39200" d="M900.803,474.877c-0.188-0.694-0.385-1.395-0.592-2.078l2.53-0.765c0.216,0.712,0.422,1.438,0.615,2.158
	L900.803,474.877z"/>
<rect x="734" y="419.225" fill="none" width="200" height="144"/>
<path fill="#F39200" d="M836.531,563.225l-0.057-2.643c0.72-0.017,1.447-0.043,2.161-0.08l0.139,2.64
	C838.031,563.181,837.278,563.209,836.531,563.225"/>
<rect x="734" y="419.225" fill="none" width="200" height="144"/>
<path fill="#F39200" d="M843.15,562.775l-0.302-2.626c1.395-0.16,2.802-0.366,4.184-0.61l0.464,2.602
	C846.061,562.396,844.6,562.609,843.15,562.775 M851.794,561.234l-0.626-2.567c1.361-0.331,2.731-0.71,4.072-1.128l0.785,2.524
	C854.633,560.496,853.209,560.891,851.794,561.234 M860.177,558.629l-0.941-2.471c1.312-0.5,2.624-1.047,3.9-1.628l1.094,2.407
	C862.903,557.541,861.538,558.109,860.177,558.629 M868.169,554.999l-1.242-2.334c1.236-0.657,2.471-1.363,3.668-2.1l1.384,2.253
	C870.735,553.582,869.452,554.316,868.169,554.999 M875.647,550.407l-1.521-2.163c1.147-0.807,2.285-1.659,3.381-2.535l1.651,2.063
	C878.021,548.682,876.84,549.568,875.647,550.407"/>
<rect x="734" y="419.225" fill="none" width="200" height="144"/>
<path fill="#F39200" d="M882.496,544.929l-1.773-1.959c0.528-0.479,1.059-0.976,1.577-1.477l1.837,1.902
	C883.598,543.916,883.047,544.432,882.496,544.929"/>
<rect x="734" y="419.225" fill="none" width="200" height="144"/>
<path fill="#F39200" d="M775.524,459.273l-2.307-1.293c0.367-0.653,0.746-1.306,1.128-1.938l2.265,1.364
	C776.241,458.017,775.877,458.645,775.524,459.273"/>
<rect x="734" y="419.225" fill="none" width="200" height="144"/>
<path fill="#F39200" d="M766.903,490.483l-2.644-0.076c0.041-1.407,0.125-2.833,0.249-4.236l2.635,0.233
	C767.022,487.757,766.942,489.129,766.903,490.483 M767.627,482.346l-2.615-0.39c0.207-1.392,0.462-2.797,0.755-4.179l2.586,0.548
	C768.071,479.655,767.825,481.009,767.627,482.346 M769.32,474.356l-2.548-0.704c0.375-1.36,0.797-2.726,1.253-4.057l2.501,0.855
	C770.088,471.732,769.683,473.046,769.32,474.356 M771.966,466.629l-2.445-1.006c0.537-1.305,1.12-2.608,1.733-3.875l2.381,1.15
	C773.045,464.117,772.483,465.373,771.966,466.629"/>
<rect x="734" y="419.225" fill="none" width="200" height="144"/>
<path fill="#F39200" d="M764.369,496.905c-0.048-0.77-0.083-1.522-0.104-2.239l2.643-0.083c0.022,0.689,0.057,1.417,0.103,2.16
	L764.369,496.905z"/>
<path fill="#333333" d="M101.056,604.072h-0.032c-0.096,0.149-0.229,0.306-0.399,0.465s-0.371,0.305-0.601,0.433
	c-0.229,0.128-0.494,0.233-0.792,0.32c-0.299,0.085-0.629,0.128-0.991,0.128c-0.619,0-1.15-0.126-1.593-0.376
	c-0.442-0.251-0.806-0.584-1.088-1c-0.283-0.416-0.491-0.89-0.624-1.416c-0.133-0.528-0.2-1.069-0.2-1.624
	c0-0.544,0.072-1.066,0.217-1.568c0.144-0.501,0.361-0.941,0.655-1.32c0.293-0.378,0.659-0.68,1.097-0.902
	c0.437-0.226,0.955-0.336,1.552-0.336c0.715,0,1.285,0.125,1.712,0.376c0.427,0.25,0.757,0.562,0.992,0.936h0.032v-4.962h1.504v12
	h-1.44V604.072z M96.336,601.112c-0.011,0.32,0.025,0.662,0.111,1.024s0.219,0.696,0.4,1c0.181,0.304,0.416,0.558,0.704,0.76
	c0.288,0.203,0.635,0.304,1.04,0.304c0.427,0,0.792-0.093,1.096-0.278c0.305-0.187,0.553-0.431,0.744-0.729
	c0.192-0.298,0.333-0.626,0.424-0.982c0.09-0.357,0.137-0.707,0.137-1.05c0-0.384-0.052-0.76-0.152-1.128
	c-0.103-0.366-0.25-0.694-0.448-0.982s-0.448-0.521-0.752-0.696c-0.304-0.176-0.659-0.264-1.063-0.264
	c-0.406,0-0.752,0.088-1.04,0.264s-0.523,0.405-0.704,0.688c-0.183,0.281-0.312,0.604-0.393,0.968S96.325,600.739,96.336,601.112z"
	/>
<path fill="#333333" d="M111.312,604.889c-0.148,0.054-0.304,0.109-0.464,0.168s-0.338,0.114-0.536,0.168s-0.427,0.099-0.688,0.136
	c-0.263,0.037-0.559,0.058-0.889,0.058c-0.726,0-1.352-0.107-1.88-0.32c-0.527-0.213-0.966-0.512-1.312-0.896
	c-0.348-0.384-0.605-0.848-0.776-1.392s-0.256-1.146-0.256-1.808c0-0.608,0.091-1.163,0.272-1.664
	c0.182-0.502,0.439-0.938,0.775-1.306c0.336-0.366,0.738-0.652,1.208-0.854c0.469-0.203,0.992-0.304,1.568-0.304
	c0.683,0,1.253,0.116,1.712,0.352s0.827,0.558,1.104,0.968c0.277,0.411,0.478,0.899,0.601,1.464
	c0.123,0.565,0.184,1.175,0.184,1.824h-5.824c0,0.405,0.072,0.773,0.217,1.104c0.144,0.33,0.341,0.614,0.592,0.854
	c0.25,0.24,0.539,0.427,0.864,0.562c0.324,0.133,0.663,0.198,1.016,0.198c0.245,0,0.499-0.028,0.76-0.088
	c0.261-0.059,0.506-0.128,0.736-0.208c0.229-0.08,0.432-0.168,0.607-0.264c0.177-0.096,0.312-0.182,0.408-0.256V604.889
	L111.312,604.889z M110.336,600.36c0-0.309-0.045-0.603-0.136-0.88c-0.092-0.277-0.222-0.52-0.393-0.728s-0.384-0.371-0.64-0.488
	s-0.544-0.176-0.864-0.176c-0.374,0-0.69,0.068-0.952,0.208c-0.262,0.139-0.479,0.316-0.656,0.536
	c-0.176,0.219-0.31,0.461-0.399,0.728c-0.091,0.268-0.152,0.533-0.185,0.8H110.336z"/>
<path fill="#333333" d="M117.568,605.225h-1.792l-2.928-8.16h1.648l2.208,6.656h0.031l2.257-6.656h1.504L117.568,605.225z"/>
<path fill="#333333" d="M123.744,595.24h-1.696v-1.694h1.696V595.24z M122.144,597.064h1.504v8.16h-1.504V597.064z"/>
<path fill="#333333" d="M131.584,598.44c-0.288-0.117-0.571-0.205-0.849-0.264c-0.277-0.06-0.539-0.088-0.783-0.088
	c-0.416,0-0.787,0.085-1.112,0.256c-0.326,0.171-0.601,0.398-0.824,0.688s-0.395,0.616-0.512,0.984s-0.176,0.744-0.176,1.128
	c0,0.363,0.05,0.727,0.151,1.088c0.103,0.363,0.262,0.691,0.48,0.984s0.501,0.53,0.848,0.712s0.76,0.271,1.24,0.271
	c0.256,0,0.53-0.04,0.824-0.119c0.293-0.079,0.557-0.194,0.792-0.345l0.111,1.345c-0.309,0.148-0.632,0.242-0.968,0.279
	s-0.643,0.058-0.92,0.058c-0.619,0-1.182-0.112-1.688-0.337c-0.508-0.225-0.944-0.53-1.312-0.921
	c-0.368-0.389-0.654-0.842-0.855-1.358c-0.203-0.519-0.305-1.069-0.305-1.656c0-0.618,0.1-1.189,0.296-1.712
	c0.197-0.523,0.48-0.974,0.849-1.353s0.805-0.675,1.312-0.889c0.506-0.213,1.075-0.318,1.704-0.318c0.309,0,0.637,0.03,0.984,0.096
	c0.347,0.062,0.626,0.139,0.84,0.224L131.584,598.44z"/>
<path fill="#333333" d="M139.76,604.889c-0.149,0.054-0.304,0.109-0.464,0.168s-0.338,0.114-0.536,0.168s-0.427,0.099-0.688,0.136
	s-0.558,0.058-0.888,0.058c-0.726,0-1.352-0.107-1.88-0.32s-0.966-0.512-1.312-0.896c-0.348-0.384-0.605-0.848-0.776-1.392
	s-0.256-1.146-0.256-1.808c0-0.608,0.091-1.163,0.271-1.664c0.183-0.502,0.44-0.938,0.776-1.306
	c0.336-0.366,0.738-0.652,1.208-0.854c0.469-0.203,0.992-0.304,1.568-0.304c0.683,0,1.253,0.116,1.712,0.352
	s0.826,0.558,1.104,0.968c0.277,0.411,0.478,0.899,0.601,1.464c0.122,0.565,0.184,1.175,0.184,1.824h-5.824
	c0,0.405,0.072,0.773,0.216,1.104c0.145,0.33,0.342,0.614,0.593,0.854c0.25,0.24,0.539,0.427,0.863,0.562
	c0.325,0.133,0.664,0.198,1.017,0.198c0.245,0,0.499-0.028,0.76-0.088c0.261-0.059,0.506-0.128,0.736-0.208
	c0.229-0.08,0.432-0.168,0.607-0.264s0.312-0.182,0.408-0.256V604.889z M138.784,600.36c0-0.309-0.046-0.603-0.137-0.88
	s-0.221-0.52-0.392-0.728s-0.384-0.371-0.64-0.488c-0.257-0.117-0.545-0.176-0.864-0.176c-0.374,0-0.69,0.068-0.952,0.208
	c-0.262,0.139-0.48,0.316-0.656,0.536c-0.176,0.219-0.31,0.461-0.399,0.728c-0.092,0.268-0.152,0.533-0.185,0.8H138.784z"/>
<path fill="#333333" d="M146.239,603.625c0.149,0.096,0.311,0.181,0.48,0.256c0.17,0.074,0.341,0.136,0.512,0.184
	c0.17,0.048,0.333,0.083,0.488,0.104c0.155,0.021,0.285,0.03,0.392,0.03c0.17,0,0.348-0.019,0.528-0.056
	c0.182-0.037,0.347-0.102,0.496-0.192c0.149-0.09,0.272-0.21,0.368-0.358c0.096-0.149,0.144-0.336,0.144-0.562
	c0-0.244-0.088-0.453-0.264-0.624c-0.176-0.17-0.396-0.327-0.656-0.472c-0.262-0.144-0.544-0.285-0.848-0.424
	s-0.587-0.304-0.849-0.496c-0.261-0.192-0.479-0.416-0.655-0.672c-0.177-0.256-0.265-0.576-0.265-0.96
	c0-0.427,0.075-0.798,0.225-1.112c0.148-0.313,0.352-0.576,0.607-0.784s0.561-0.361,0.912-0.464c0.353-0.101,0.73-0.15,1.136-0.15
	c0.353,0,0.678,0.03,0.977,0.096c0.299,0.062,0.597,0.139,0.896,0.224l-0.128,1.312c-0.085-0.055-0.199-0.104-0.344-0.152
	c-0.144-0.048-0.294-0.093-0.448-0.136s-0.304-0.074-0.447-0.096c-0.145-0.021-0.26-0.032-0.345-0.032
	c-0.384,0-0.72,0.08-1.008,0.239s-0.432,0.41-0.432,0.753c0,0.276,0.088,0.504,0.264,0.68s0.396,0.331,0.656,0.464
	c0.261,0.134,0.544,0.268,0.848,0.4c0.305,0.133,0.586,0.293,0.849,0.479c0.262,0.188,0.479,0.419,0.655,0.696
	c0.177,0.276,0.265,0.635,0.265,1.072c0,0.437-0.08,0.814-0.24,1.136c-0.16,0.318-0.374,0.584-0.64,0.792
	c-0.267,0.208-0.57,0.362-0.912,0.464c-0.343,0.102-0.694,0.152-1.057,0.152c-0.384,0-0.768-0.03-1.151-0.09
	c-0.385-0.059-0.747-0.178-1.088-0.358L146.239,603.625z"/>
<path fill="#333333" d="M153.071,593.225h1.505v5.008h0.031c0.277-0.438,0.641-0.772,1.088-1.008
	c0.448-0.234,0.96-0.352,1.536-0.352c1.057,0,1.829,0.309,2.32,0.928c0.491,0.618,0.736,1.478,0.736,2.576v4.848h-1.504v-4.224
	c0-0.96-0.123-1.676-0.368-2.146c-0.246-0.469-0.699-0.725-1.36-0.768c-0.427,0-0.798,0.082-1.112,0.248
	c-0.313,0.165-0.572,0.395-0.775,0.688c-0.203,0.294-0.353,0.648-0.448,1.064s-0.144,0.869-0.144,1.358v3.778h-1.505V593.225z"/>
<path fill="#333333" d="M164.639,595.24h-1.696v-1.694h1.696V595.24z M163.04,597.064h1.504v8.16h-1.504V597.064z"/>
<path fill="#333333" d="M168.271,598.28h-1.92v-1.216h1.92v-0.752c0-0.49,0.038-0.938,0.112-1.344
	c0.074-0.405,0.213-0.752,0.416-1.04c0.202-0.288,0.481-0.51,0.84-0.664s0.813-0.232,1.368-0.232c0.192,0,0.37,0.012,0.536,0.032
	c0.166,0.021,0.323,0.043,0.472,0.064l-0.063,1.216c-0.085-0.032-0.195-0.056-0.328-0.072c-0.134-0.016-0.265-0.022-0.393-0.022
	c-0.319,0-0.576,0.048-0.768,0.144c-0.192,0.096-0.339,0.232-0.44,0.408c-0.101,0.176-0.168,0.381-0.2,0.616
	c-0.031,0.233-0.048,0.489-0.048,0.768v0.88h2.16v1.216h-2.16v6.943h-1.504V598.28L168.271,598.28z"/>
<path fill="#333333" d="M177.855,598.28h-2.16v4.464c0,0.48,0.125,0.844,0.376,1.09c0.25,0.244,0.547,0.366,0.889,0.366
	c0.233,0,0.434-0.028,0.6-0.088c0.166-0.059,0.308-0.125,0.424-0.198v1.278c-0.171,0.055-0.365,0.104-0.584,0.152
	s-0.451,0.072-0.695,0.072c-0.779,0-1.393-0.189-1.841-0.568c-0.447-0.379-0.672-0.979-0.672-1.8v-4.77h-1.84v-1.216h1.84v-1.888
	l1.504-0.48v2.368h2.16V598.28L177.855,598.28z"/>
<path fill="#333333" d="M181.535,595.24h-1.696v-1.694h1.696V595.24z M179.935,597.064h1.504v8.16h-1.504V597.064z"/>
<path fill="#333333" d="M184.191,597.064h1.456v1.296h0.032c0.224-0.469,0.581-0.834,1.072-1.096s1.023-0.392,1.6-0.392
	c1.057,0,1.829,0.309,2.32,0.928c0.491,0.618,0.736,1.478,0.736,2.576v4.848h-1.505v-4.224c0-0.96-0.123-1.676-0.367-2.146
	c-0.246-0.469-0.699-0.725-1.36-0.768c-0.427,0-0.798,0.082-1.112,0.248c-0.313,0.165-0.572,0.395-0.775,0.688
	c-0.203,0.294-0.353,0.648-0.448,1.064s-0.145,0.869-0.145,1.358v3.778h-1.504V597.064L184.191,597.064z"/>
<path fill="#333333" d="M201.183,604.873c0,1.235-0.336,2.196-1.008,2.88c-0.672,0.683-1.739,1.022-3.2,1.022
	c-0.213,0-0.424-0.008-0.632-0.022c-0.208-0.018-0.429-0.046-0.664-0.088c-0.235-0.044-0.483-0.101-0.744-0.169
	c-0.262-0.069-0.558-0.162-0.888-0.279l0.16-1.394c0.288,0.128,0.552,0.24,0.792,0.336c0.239,0.098,0.472,0.175,0.695,0.232
	c0.225,0.059,0.454,0.102,0.688,0.128c0.235,0.026,0.491,0.04,0.768,0.04c0.801,0,1.421-0.251,1.864-0.752
	c0.442-0.502,0.664-1.185,0.664-2.048v-0.8h-0.032c-0.319,0.427-0.726,0.743-1.216,0.951c-0.491,0.208-0.998,0.312-1.52,0.312
	c-0.587,0-1.1-0.109-1.536-0.328c-0.438-0.219-0.8-0.515-1.088-0.888s-0.504-0.8-0.648-1.28c-0.144-0.479-0.216-0.986-0.216-1.521
	c0-0.521,0.075-1.043,0.224-1.561c0.149-0.517,0.376-0.98,0.681-1.392c0.304-0.411,0.682-0.744,1.136-1
	c0.454-0.257,0.989-0.385,1.607-0.385c0.727,0,1.3,0.122,1.721,0.367c0.421,0.246,0.744,0.593,0.968,1.04h0.032v-1.216h1.392
	V604.873L201.183,604.873z M197.295,604.009c0.352,0,0.675-0.072,0.968-0.216c0.293-0.146,0.544-0.343,0.752-0.594
	c0.208-0.25,0.371-0.544,0.488-0.88s0.176-0.694,0.176-1.08c0-0.426-0.048-0.829-0.144-1.208c-0.097-0.378-0.246-0.712-0.448-1
	s-0.454-0.517-0.752-0.688c-0.299-0.171-0.646-0.256-1.04-0.256c-0.384,0-0.717,0.093-1,0.278c-0.283,0.188-0.519,0.428-0.704,0.722
	c-0.188,0.293-0.328,0.617-0.424,0.976c-0.097,0.358-0.145,0.712-0.145,1.064c0,0.384,0.054,0.749,0.16,1.096
	s0.256,0.653,0.448,0.92s0.429,0.479,0.712,0.632C196.625,603.932,196.943,604.009,197.295,604.009z"/>
<path fill="#333333" d="M422.464,598.44c-0.288-0.117-0.571-0.205-0.849-0.264c-0.277-0.06-0.538-0.088-0.783-0.088
	c-0.416,0-0.787,0.085-1.112,0.256c-0.326,0.171-0.6,0.398-0.824,0.688c-0.224,0.289-0.395,0.616-0.512,0.984
	s-0.176,0.744-0.176,1.128c0,0.363,0.05,0.727,0.151,1.088c0.103,0.363,0.262,0.691,0.48,0.984s0.501,0.53,0.848,0.712
	c0.348,0.182,0.761,0.271,1.24,0.271c0.256,0,0.53-0.04,0.824-0.119c0.293-0.079,0.557-0.194,0.792-0.345l0.111,1.345
	c-0.309,0.148-0.632,0.242-0.968,0.279s-0.643,0.058-0.92,0.058c-0.619,0-1.182-0.112-1.688-0.337
	c-0.507-0.225-0.944-0.53-1.312-0.921c-0.368-0.389-0.654-0.842-0.855-1.358c-0.203-0.519-0.305-1.069-0.305-1.656
	c0-0.618,0.1-1.189,0.296-1.712c0.197-0.523,0.48-0.974,0.849-1.353s0.805-0.675,1.312-0.889c0.506-0.213,1.075-0.318,1.704-0.318
	c0.31,0,0.637,0.03,0.984,0.096c0.347,0.062,0.626,0.139,0.84,0.224L422.464,598.44z"/>
<path fill="#333333" d="M423.839,601.145c0-0.618,0.099-1.189,0.296-1.712c0.196-0.522,0.479-0.974,0.848-1.352
	c0.368-0.38,0.805-0.676,1.312-0.89c0.507-0.213,1.074-0.318,1.703-0.318c0.619,0,1.185,0.105,1.696,0.318
	c0.512,0.214,0.949,0.51,1.312,0.89c0.362,0.378,0.643,0.828,0.84,1.352c0.197,0.522,0.296,1.094,0.296,1.712
	c0,0.587-0.102,1.139-0.304,1.656c-0.202,0.517-0.485,0.971-0.849,1.358c-0.362,0.391-0.8,0.696-1.312,0.922
	c-0.512,0.224-1.072,0.336-1.681,0.336c-0.618,0-1.182-0.112-1.688-0.336c-0.507-0.226-0.944-0.531-1.312-0.922
	c-0.367-0.389-0.652-0.842-0.855-1.358C423.94,602.283,423.839,601.731,423.839,601.145z M425.439,601.145
	c0,0.363,0.051,0.727,0.152,1.088c0.102,0.363,0.256,0.691,0.464,0.984s0.472,0.53,0.792,0.712c0.319,0.182,0.704,0.271,1.151,0.271
	c0.438,0,0.816-0.09,1.137-0.271c0.319-0.183,0.584-0.419,0.792-0.712s0.361-0.621,0.464-0.984c0.101-0.361,0.152-0.725,0.152-1.088
	c0-0.384-0.06-0.76-0.177-1.128c-0.118-0.368-0.282-0.696-0.496-0.984c-0.213-0.288-0.479-0.517-0.8-0.688s-0.677-0.256-1.072-0.256
	c-0.404,0-0.766,0.085-1.079,0.256c-0.314,0.171-0.582,0.398-0.801,0.688c-0.219,0.288-0.387,0.616-0.504,0.984
	S425.439,600.761,425.439,601.145z"/>
<path fill="#333333" d="M434.144,597.064h1.408v1.186h0.032c0.287-0.48,0.64-0.83,1.056-1.05c0.416-0.218,0.928-0.326,1.536-0.326
	c0.469,0,0.92,0.125,1.352,0.376c0.433,0.25,0.754,0.652,0.968,1.208c0.139-0.288,0.314-0.533,0.528-0.736
	c0.213-0.202,0.438-0.368,0.672-0.496s0.469-0.219,0.704-0.272c0.234-0.053,0.442-0.078,0.624-0.078c0.522,0,0.962,0.078,1.32,0.238
	c0.357,0.16,0.647,0.379,0.872,0.656c0.224,0.277,0.387,0.605,0.487,0.984c0.102,0.379,0.152,0.792,0.152,1.238v5.232h-1.504v-4.864
	c0-0.256-0.019-0.517-0.056-0.784c-0.038-0.266-0.109-0.509-0.217-0.728c-0.106-0.219-0.256-0.4-0.447-0.544
	c-0.192-0.146-0.438-0.216-0.736-0.216c-0.384,0-0.712,0.085-0.984,0.256c-0.271,0.171-0.493,0.396-0.663,0.68
	c-0.172,0.283-0.297,0.605-0.377,0.968c-0.079,0.363-0.119,0.736-0.119,1.12v4.112h-1.504v-4.864c0-0.256-0.02-0.517-0.057-0.784
	c-0.038-0.266-0.108-0.509-0.216-0.728s-0.256-0.4-0.448-0.544c-0.191-0.146-0.438-0.216-0.735-0.216
	c-0.385,0-0.713,0.085-0.984,0.256c-0.272,0.171-0.494,0.396-0.664,0.68c-0.171,0.283-0.296,0.605-0.376,0.968
	c-0.08,0.363-0.12,0.736-0.12,1.12v4.112h-1.504V597.064L434.144,597.064z"/>
<path fill="#333333" d="M448.383,597.064h1.439v1.152h0.032c0.096-0.149,0.227-0.305,0.392-0.464
	c0.165-0.16,0.365-0.306,0.601-0.434c0.233-0.128,0.499-0.233,0.792-0.318c0.293-0.086,0.621-0.128,0.983-0.128
	c0.587,0,1.102,0.11,1.545,0.336c0.441,0.224,0.811,0.524,1.104,0.902c0.293,0.379,0.512,0.819,0.656,1.32
	c0.144,0.502,0.216,1.024,0.216,1.568c0,0.564-0.067,1.11-0.2,1.64s-0.341,0.997-0.624,1.408c-0.283,0.41-0.646,0.741-1.088,0.992
	c-0.443,0.25-0.974,0.376-1.592,0.376c-0.727,0-1.302-0.126-1.729-0.376c-0.427-0.251-0.758-0.562-0.991-0.938h-0.032v4.48h-1.504
	V597.064z M454.543,601.112c0.011-0.361-0.024-0.725-0.104-1.088c-0.08-0.362-0.21-0.688-0.392-0.976s-0.416-0.521-0.704-0.696
	c-0.288-0.176-0.636-0.264-1.04-0.264c-0.406,0-0.76,0.088-1.064,0.264c-0.304,0.176-0.558,0.408-0.76,0.696
	s-0.352,0.616-0.448,0.982c-0.096,0.368-0.144,0.744-0.144,1.128c0,0.343,0.045,0.691,0.136,1.05
	c0.091,0.357,0.232,0.686,0.424,0.982c0.192,0.299,0.44,0.542,0.744,0.729c0.304,0.187,0.669,0.278,1.096,0.278
	c0.405,0,0.752-0.101,1.04-0.304c0.288-0.202,0.522-0.456,0.704-0.76c0.182-0.305,0.314-0.639,0.4-1
	S454.554,601.433,454.543,601.112z"/>
<path fill="#333333" d="M458.352,593.225h1.504v12h-1.504V593.225z"/>
<path fill="#333333" d="M468.863,604.889c-0.148,0.054-0.304,0.109-0.464,0.168s-0.338,0.114-0.536,0.168s-0.427,0.099-0.688,0.136
	c-0.263,0.037-0.559,0.058-0.889,0.058c-0.726,0-1.352-0.107-1.88-0.32c-0.527-0.213-0.966-0.512-1.312-0.896
	c-0.348-0.384-0.605-0.848-0.776-1.392s-0.256-1.146-0.256-1.808c0-0.608,0.091-1.163,0.272-1.664
	c0.182-0.502,0.439-0.938,0.775-1.306c0.336-0.366,0.738-0.652,1.208-0.854c0.469-0.203,0.992-0.304,1.568-0.304
	c0.683,0,1.253,0.116,1.712,0.352s0.827,0.558,1.104,0.968c0.277,0.411,0.478,0.899,0.601,1.464
	c0.123,0.565,0.184,1.175,0.184,1.824h-5.824c0,0.405,0.072,0.773,0.217,1.104c0.144,0.33,0.341,0.614,0.592,0.854
	c0.25,0.24,0.539,0.427,0.864,0.562c0.324,0.133,0.663,0.198,1.016,0.198c0.245,0,0.499-0.028,0.76-0.088
	c0.261-0.059,0.506-0.128,0.736-0.208c0.229-0.08,0.432-0.168,0.607-0.264c0.177-0.096,0.312-0.182,0.408-0.256V604.889z
	 M467.887,600.36c0-0.309-0.045-0.603-0.136-0.88c-0.092-0.277-0.222-0.52-0.393-0.728s-0.384-0.371-0.64-0.488
	s-0.544-0.176-0.864-0.176c-0.374,0-0.69,0.068-0.952,0.208c-0.262,0.139-0.479,0.316-0.656,0.536
	c-0.176,0.219-0.31,0.461-0.399,0.728c-0.091,0.268-0.152,0.533-0.185,0.8H467.887z"/>
<path fill="#333333" d="M471.488,597.064h1.408v1.186h0.032c0.288-0.48,0.64-0.83,1.056-1.05c0.416-0.218,0.928-0.326,1.536-0.326
	c0.469,0,0.92,0.125,1.352,0.376c0.433,0.25,0.755,0.652,0.969,1.208c0.138-0.288,0.313-0.533,0.527-0.736
	c0.213-0.202,0.438-0.368,0.672-0.496s0.47-0.219,0.704-0.272c0.234-0.053,0.442-0.078,0.624-0.078c0.522,0,0.962,0.078,1.32,0.238
	s0.648,0.379,0.872,0.656s0.387,0.605,0.488,0.984c0.101,0.379,0.151,0.792,0.151,1.238v5.232h-1.504v-4.864
	c0-0.256-0.019-0.517-0.056-0.784c-0.038-0.266-0.109-0.509-0.216-0.728c-0.107-0.219-0.256-0.4-0.448-0.544
	c-0.192-0.146-0.438-0.216-0.736-0.216c-0.384,0-0.712,0.085-0.983,0.256c-0.272,0.171-0.494,0.396-0.664,0.68
	c-0.171,0.283-0.296,0.605-0.376,0.968c-0.08,0.363-0.12,0.736-0.12,1.12v4.112h-1.504v-4.864c0-0.256-0.02-0.517-0.057-0.784
	c-0.037-0.266-0.108-0.509-0.216-0.728c-0.106-0.219-0.256-0.4-0.448-0.544c-0.191-0.146-0.438-0.216-0.735-0.216
	c-0.384,0-0.712,0.085-0.984,0.256c-0.271,0.171-0.494,0.396-0.664,0.68c-0.171,0.283-0.296,0.605-0.376,0.968
	c-0.08,0.363-0.12,0.736-0.12,1.12v4.112h-1.504V597.064L471.488,597.064z"/>
<path fill="#333333" d="M491.983,604.889c-0.148,0.054-0.304,0.109-0.464,0.168s-0.338,0.114-0.536,0.168s-0.427,0.099-0.688,0.136
	c-0.263,0.037-0.559,0.058-0.889,0.058c-0.726,0-1.352-0.107-1.88-0.32s-0.966-0.512-1.312-0.896
	c-0.348-0.384-0.605-0.848-0.776-1.392s-0.256-1.146-0.256-1.808c0-0.608,0.091-1.163,0.271-1.664
	c0.183-0.502,0.44-0.938,0.776-1.306c0.336-0.366,0.738-0.652,1.208-0.854c0.469-0.203,0.992-0.304,1.568-0.304
	c0.683,0,1.253,0.116,1.712,0.352s0.827,0.558,1.104,0.968c0.277,0.411,0.478,0.899,0.601,1.464
	c0.123,0.565,0.184,1.175,0.184,1.824h-5.824c0,0.405,0.072,0.773,0.216,1.104c0.145,0.33,0.342,0.614,0.593,0.854
	c0.25,0.24,0.539,0.427,0.863,0.562c0.325,0.133,0.664,0.198,1.017,0.198c0.245,0,0.499-0.028,0.76-0.088
	c0.261-0.059,0.506-0.128,0.736-0.208c0.229-0.08,0.432-0.168,0.607-0.264c0.177-0.096,0.312-0.182,0.408-0.256V604.889z
	 M491.007,600.36c0-0.309-0.045-0.603-0.137-0.88c-0.091-0.277-0.221-0.52-0.392-0.728s-0.384-0.371-0.64-0.488
	c-0.257-0.117-0.544-0.176-0.864-0.176c-0.374,0-0.69,0.068-0.952,0.208c-0.262,0.139-0.479,0.316-0.656,0.536
	c-0.176,0.219-0.31,0.461-0.399,0.728c-0.092,0.268-0.152,0.533-0.185,0.8H491.007z"/>
<path fill="#333333" d="M494.622,597.064h1.456v1.296h0.032c0.225-0.469,0.581-0.834,1.072-1.096s1.023-0.392,1.6-0.392
	c1.057,0,1.829,0.309,2.32,0.928c0.491,0.618,0.736,1.478,0.736,2.576v4.848h-1.504v-4.224c0-0.96-0.123-1.676-0.368-2.146
	c-0.246-0.469-0.699-0.725-1.36-0.768c-0.427,0-0.798,0.082-1.112,0.248c-0.313,0.165-0.572,0.395-0.775,0.688
	c-0.203,0.294-0.353,0.648-0.448,1.064s-0.144,0.869-0.144,1.358v3.778h-1.505V597.064z"/>
<path fill="#333333" d="M508.735,598.28h-2.16v4.464c0,0.48,0.125,0.844,0.376,1.09c0.25,0.244,0.546,0.366,0.889,0.366
	c0.233,0,0.434-0.028,0.6-0.088c0.166-0.059,0.307-0.125,0.424-0.198v1.278c-0.171,0.055-0.366,0.104-0.584,0.152
	c-0.219,0.048-0.451,0.072-0.696,0.072c-0.778,0-1.392-0.189-1.84-0.568c-0.447-0.379-0.672-0.979-0.672-1.8v-4.77h-1.84v-1.216
	h1.84v-1.888l1.504-0.48v2.368h2.16V598.28z"/>
<path fill="#333333" d="M511.007,597.641c0.373-0.224,0.783-0.408,1.23-0.552c0.449-0.146,0.935-0.216,1.457-0.216
	c1.173,0,2.013,0.281,2.521,0.848c0.506,0.564,0.76,1.408,0.76,2.528v3.376c0,0.469,0.006,0.822,0.016,1.062
	c0.013,0.24,0.027,0.419,0.049,0.536h-1.407v-1.056H515.6c-0.085,0.128-0.202,0.264-0.354,0.406c-0.147,0.146-0.326,0.278-0.534,0.4
	c-0.208,0.123-0.448,0.227-0.722,0.312c-0.271,0.085-0.578,0.128-0.92,0.128c-0.438,0-0.84-0.05-1.208-0.146
	s-0.686-0.248-0.952-0.456c-0.266-0.208-0.472-0.472-0.615-0.792c-0.145-0.318-0.217-0.704-0.217-1.15
	c0-0.514,0.125-0.938,0.376-1.28c0.251-0.343,0.562-0.616,0.937-0.824s0.784-0.357,1.231-0.448c0.447-0.09,0.863-0.136,1.248-0.136
	c0.3,0,0.564,0,0.801,0c0.233,0,0.501,0.011,0.8,0.032c0-0.704-0.146-1.234-0.439-1.592c-0.294-0.357-0.818-0.536-1.576-0.536
	c-0.428,0-0.852,0.073-1.271,0.224c-0.421,0.149-0.787,0.354-1.096,0.608L511.007,597.641z M515.471,601.337
	c-0.16,0-0.32-0.006-0.48-0.018c-0.16-0.01-0.318-0.016-0.479-0.016c-0.202,0-0.464,0.014-0.784,0.04
	c-0.32,0.025-0.632,0.094-0.936,0.2c-0.306,0.105-0.566,0.264-0.784,0.472c-0.219,0.208-0.328,0.493-0.328,0.855
	c0,0.214,0.048,0.402,0.144,0.567c0.097,0.166,0.216,0.304,0.36,0.416s0.307,0.197,0.488,0.256c0.181,0.06,0.355,0.088,0.527,0.088
	c0.746,0,1.312-0.205,1.695-0.614c0.385-0.411,0.576-0.92,0.576-1.528V601.337L515.471,601.337z"/>
<path fill="#333333" d="M519.52,597.064h1.408v1.264h0.031c0.202-0.426,0.498-0.774,0.889-1.048c0.389-0.271,0.803-0.406,1.24-0.406
	c0.223,0,0.403,0.011,0.543,0.03c0.139,0.021,0.289,0.049,0.447,0.08v1.345c-0.139-0.054-0.279-0.091-0.424-0.111
	c-0.144-0.021-0.279-0.032-0.408-0.032c-0.672,0-1.21,0.299-1.615,0.896c-0.405,0.597-0.607,1.406-0.607,2.432v3.711h-1.504V597.064
	L519.52,597.064z"/>
<path fill="#333333" d="M527.534,595.24h-1.695v-1.694h1.695V595.24z M525.936,597.064h1.504v8.16h-1.504V597.064z"/>
<path fill="#333333" d="M534.527,598.28h-2.16v4.464c0,0.48,0.125,0.844,0.376,1.09c0.251,0.244,0.546,0.366,0.889,0.366
	c0.233,0,0.435-0.028,0.6-0.088c0.166-0.059,0.307-0.125,0.425-0.198v1.278c-0.171,0.055-0.366,0.104-0.584,0.152
	c-0.219,0.048-0.45,0.072-0.696,0.072c-0.778,0-1.393-0.189-1.84-0.568s-0.672-0.979-0.672-1.8v-4.77h-1.84v-1.216h1.84v-1.888
	l1.504-0.48v2.368h2.16L534.527,598.28L534.527,598.28z"/>
<path fill="#333333" d="M535.807,607.433c0.096,0.032,0.205,0.062,0.328,0.088s0.248,0.04,0.376,0.04
	c0.331,0,0.609-0.099,0.84-0.296c0.229-0.197,0.416-0.416,0.56-0.656c0.146-0.24,0.246-0.467,0.306-0.68
	c0.059-0.214,0.088-0.342,0.088-0.384c0-0.086-0.035-0.217-0.104-0.394c-0.069-0.176-0.131-0.333-0.185-0.472l-2.77-7.616h1.648
	l2.192,6.752h0.031l2.24-6.752h1.521l-3.009,8.336c-0.139,0.396-0.287,0.792-0.447,1.192c-0.16,0.398-0.354,0.763-0.584,1.088
	c-0.23,0.325-0.516,0.589-0.856,0.792c-0.342,0.202-0.758,0.304-1.248,0.304c-0.245,0-0.441-0.014-0.592-0.04
	c-0.15-0.025-0.293-0.051-0.432-0.07L535.807,607.433z"/>
<path fill="#333333" d="M739.672,603.625c0.148,0.096,0.31,0.181,0.479,0.256c0.17,0.074,0.341,0.136,0.512,0.184
	s0.333,0.083,0.488,0.104c0.154,0.021,0.285,0.03,0.393,0.03c0.171,0,0.347-0.019,0.527-0.056c0.182-0.037,0.347-0.102,0.496-0.192
	c0.148-0.09,0.271-0.21,0.367-0.358c0.097-0.149,0.145-0.336,0.145-0.562c0-0.244-0.088-0.453-0.264-0.624
	c-0.176-0.17-0.395-0.327-0.656-0.472c-0.262-0.144-0.544-0.285-0.848-0.424c-0.305-0.139-0.588-0.304-0.849-0.496
	c-0.262-0.192-0.479-0.416-0.655-0.672c-0.177-0.256-0.265-0.576-0.265-0.96c0-0.427,0.074-0.798,0.224-1.112
	c0.149-0.313,0.353-0.576,0.607-0.784s0.561-0.361,0.912-0.464c0.354-0.101,0.73-0.15,1.137-0.15c0.352,0,0.678,0.03,0.977,0.096
	c0.299,0.062,0.597,0.139,0.896,0.224l-0.128,1.312c-0.086-0.055-0.199-0.104-0.344-0.152s-0.294-0.093-0.448-0.136
	s-0.304-0.074-0.447-0.096c-0.145-0.021-0.258-0.032-0.345-0.032c-0.384,0-0.721,0.08-1.008,0.239
	c-0.288,0.159-0.432,0.41-0.432,0.753c0,0.276,0.088,0.504,0.264,0.68s0.396,0.331,0.656,0.464c0.261,0.134,0.543,0.268,0.848,0.4
	s0.586,0.293,0.849,0.479c0.262,0.187,0.479,0.419,0.655,0.696c0.177,0.276,0.265,0.635,0.265,1.072c0,0.437-0.08,0.814-0.24,1.136
	c-0.16,0.318-0.373,0.584-0.64,0.792c-0.268,0.208-0.57,0.362-0.911,0.464c-0.342,0.102-0.694,0.152-1.058,0.152
	c-0.384,0-0.768-0.03-1.151-0.09c-0.384-0.059-0.746-0.178-1.088-0.358L739.672,603.625z"/>
<path fill="#333333" d="M748.295,595.24H746.6v-1.694h1.695V595.24z M746.695,597.064h1.504v8.16h-1.504V597.064z"/>
<path fill="#333333" d="M750.936,597.064h1.408v1.186h0.031c0.288-0.48,0.641-0.83,1.057-1.05c0.416-0.218,0.928-0.326,1.536-0.326
	c0.47,0,0.92,0.125,1.353,0.376c0.433,0.25,0.754,0.652,0.969,1.208c0.138-0.288,0.313-0.533,0.527-0.736
	c0.213-0.202,0.438-0.368,0.672-0.496s0.47-0.219,0.703-0.272c0.234-0.053,0.443-0.078,0.625-0.078c0.521,0,0.962,0.078,1.319,0.238
	c0.356,0.16,0.646,0.379,0.872,0.656c0.225,0.277,0.387,0.605,0.487,0.984c0.102,0.379,0.152,0.792,0.152,1.238v5.232h-1.504v-4.864
	c0-0.256-0.021-0.517-0.057-0.784c-0.037-0.266-0.109-0.509-0.217-0.728c-0.106-0.219-0.257-0.4-0.447-0.544
	c-0.191-0.146-0.438-0.216-0.736-0.216c-0.384,0-0.711,0.085-0.983,0.256c-0.271,0.171-0.492,0.396-0.664,0.68
	c-0.171,0.283-0.296,0.605-0.376,0.968c-0.079,0.363-0.119,0.736-0.119,1.12v4.112h-1.505v-4.864c0-0.256-0.019-0.517-0.056-0.784
	c-0.038-0.266-0.109-0.509-0.217-0.728c-0.106-0.219-0.256-0.4-0.447-0.544c-0.192-0.146-0.438-0.216-0.736-0.216
	c-0.385,0-0.712,0.085-0.983,0.256s-0.493,0.396-0.664,0.68c-0.17,0.283-0.296,0.605-0.375,0.968
	c-0.08,0.363-0.121,0.736-0.121,1.12v4.112h-1.504V597.064L750.936,597.064z"/>
<path fill="#333333" d="M772.392,605.225h-1.456v-1.296h-0.032c-0.224,0.47-0.581,0.835-1.07,1.096
	c-0.491,0.263-1.024,0.394-1.602,0.394c-1.056,0-1.829-0.311-2.319-0.93c-0.49-0.617-0.735-1.477-0.735-2.574v-4.85h1.504v4.225
	c0,0.961,0.123,1.675,0.367,2.145c0.246,0.47,0.698,0.726,1.36,0.768c0.427,0,0.798-0.082,1.111-0.248
	c0.314-0.164,0.573-0.394,0.775-0.688c0.203-0.293,0.353-0.646,0.449-1.056c0.096-0.411,0.144-0.867,0.144-1.368v-3.776h1.504
	V605.225L772.392,605.225z"/>
<path fill="#333333" d="M775.145,593.225h1.504v12h-1.504V593.225z"/>
<path fill="#333333" d="M783.736,598.28h-2.16v4.464c0,0.48,0.125,0.844,0.375,1.09c0.251,0.244,0.548,0.366,0.89,0.366
	c0.233,0,0.434-0.028,0.6-0.088c0.166-0.059,0.307-0.125,0.424-0.198v1.278c-0.17,0.055-0.365,0.104-0.584,0.152
	s-0.45,0.072-0.694,0.072c-0.779,0-1.394-0.189-1.841-0.568c-0.448-0.379-0.672-0.979-0.672-1.8v-4.77h-1.841v-1.216h1.841v-1.888
	l1.504-0.48v2.368h2.16L783.736,598.28L783.736,598.28z"/>
<path fill="#333333" d="M786.008,597.641c0.373-0.224,0.783-0.408,1.231-0.552c0.447-0.146,0.934-0.216,1.455-0.216
	c1.174,0,2.015,0.281,2.521,0.848s0.76,1.408,0.76,2.528v3.376c0,0.469,0.005,0.822,0.017,1.062c0.011,0.24,0.025,0.419,0.047,0.536
	h-1.406v-1.056H790.6c-0.086,0.128-0.203,0.264-0.353,0.406c-0.149,0.146-0.327,0.278-0.535,0.4
	c-0.208,0.123-0.448,0.227-0.721,0.312c-0.271,0.085-0.579,0.128-0.92,0.128c-0.438,0-0.84-0.05-1.209-0.146
	c-0.367-0.096-0.686-0.248-0.951-0.456c-0.268-0.208-0.473-0.472-0.615-0.792c-0.145-0.318-0.217-0.704-0.217-1.15
	c0-0.514,0.125-0.938,0.375-1.28c0.251-0.342,0.562-0.616,0.938-0.824s0.784-0.357,1.231-0.448c0.448-0.09,0.864-0.136,1.247-0.136
	c0.3,0,0.566,0,0.802,0c0.234,0,0.501,0.011,0.8,0.032c0-0.704-0.146-1.234-0.44-1.592c-0.293-0.357-0.817-0.536-1.576-0.536
	c-0.426,0-0.85,0.073-1.271,0.224s-0.787,0.354-1.096,0.608L786.008,597.641z M790.472,601.337c-0.16,0-0.319-0.006-0.479-0.018
	c-0.16-0.01-0.319-0.016-0.479-0.016c-0.203,0-0.464,0.014-0.784,0.04c-0.319,0.025-0.632,0.094-0.936,0.2
	c-0.305,0.105-0.565,0.264-0.784,0.472c-0.22,0.208-0.328,0.493-0.328,0.855c0,0.214,0.048,0.402,0.145,0.567
	c0.097,0.166,0.216,0.304,0.359,0.416s0.307,0.197,0.488,0.256c0.181,0.06,0.356,0.088,0.526,0.088c0.747,0,1.312-0.205,1.696-0.614
	c0.384-0.411,0.576-0.92,0.576-1.528V601.337z"/>
<path fill="#333333" d="M794.52,597.064h1.455v1.296h0.033c0.224-0.469,0.58-0.834,1.07-1.096c0.491-0.262,1.024-0.392,1.602-0.392
	c1.056,0,1.828,0.309,2.318,0.928c0.491,0.618,0.736,1.478,0.736,2.576v4.848h-1.504v-4.224c0-0.96-0.123-1.676-0.368-2.146
	c-0.246-0.469-0.698-0.725-1.358-0.768c-0.429,0-0.8,0.082-1.113,0.248c-0.314,0.165-0.572,0.395-0.775,0.688
	c-0.203,0.294-0.352,0.648-0.446,1.064c-0.098,0.416-0.146,0.869-0.146,1.358v3.778h-1.504V597.064L794.52,597.064z"/>
<path fill="#333333" d="M810.552,604.889c-0.149,0.054-0.305,0.109-0.464,0.168c-0.16,0.059-0.34,0.114-0.536,0.168
	c-0.198,0.054-0.427,0.099-0.688,0.136c-0.261,0.037-0.557,0.058-0.888,0.058c-0.726,0-1.354-0.107-1.88-0.32
	c-0.528-0.213-0.966-0.512-1.312-0.896c-0.346-0.384-0.604-0.848-0.774-1.392c-0.171-0.544-0.256-1.146-0.256-1.808
	c0-0.608,0.09-1.163,0.271-1.664c0.182-0.502,0.44-0.938,0.776-1.306c0.336-0.366,0.737-0.652,1.208-0.854
	c0.469-0.203,0.992-0.304,1.567-0.304c0.683,0,1.253,0.116,1.711,0.352c0.459,0.234,0.827,0.558,1.104,0.968
	c0.277,0.411,0.478,0.899,0.601,1.464c0.122,0.565,0.185,1.175,0.185,1.824h-5.824c0,0.405,0.072,0.773,0.216,1.104
	c0.145,0.33,0.341,0.614,0.593,0.854c0.25,0.24,0.538,0.427,0.863,0.562c0.325,0.133,0.664,0.198,1.016,0.198
	c0.246,0,0.5-0.028,0.762-0.088c0.261-0.059,0.507-0.128,0.734-0.208c0.229-0.08,0.434-0.168,0.608-0.264
	c0.177-0.096,0.312-0.182,0.408-0.256V604.889z M809.575,600.36c0-0.309-0.046-0.603-0.137-0.88s-0.221-0.52-0.392-0.728
	c-0.172-0.208-0.385-0.371-0.641-0.488s-0.545-0.176-0.865-0.176c-0.373,0-0.688,0.068-0.95,0.208
	c-0.263,0.139-0.48,0.316-0.656,0.536c-0.176,0.219-0.311,0.461-0.4,0.728c-0.09,0.268-0.15,0.533-0.184,0.8H809.575z"/>
<path fill="#333333" d="M814.982,595.24h-1.695v-1.694h1.695V595.24z M813.383,597.064h1.504v8.16h-1.504V597.064z"/>
<path fill="#333333" d="M821.976,598.28h-2.16v4.464c0,0.48,0.125,0.844,0.376,1.09c0.25,0.244,0.547,0.366,0.889,0.366
	c0.234,0,0.435-0.028,0.601-0.088c0.165-0.059,0.307-0.125,0.424-0.198v1.278c-0.171,0.055-0.365,0.104-0.584,0.152
	s-0.451,0.072-0.696,0.072c-0.777,0-1.392-0.189-1.84-0.568s-0.672-0.979-0.672-1.8v-4.77h-1.841v-1.216h1.841v-1.888l1.504-0.48
	v2.368h2.16L821.976,598.28L821.976,598.28z"/>
<path fill="#333333" d="M823.255,607.433c0.097,0.032,0.206,0.062,0.327,0.088c0.122,0.026,0.248,0.04,0.377,0.04
	c0.329,0,0.609-0.099,0.84-0.296c0.229-0.197,0.416-0.416,0.561-0.656s0.245-0.467,0.304-0.68c0.06-0.214,0.089-0.342,0.089-0.384
	c0-0.086-0.034-0.217-0.104-0.394c-0.068-0.176-0.131-0.333-0.184-0.472l-2.769-7.616h1.647l2.191,6.752h0.031l2.24-6.752h1.521
	l-3.009,8.336c-0.139,0.396-0.287,0.792-0.447,1.192c-0.159,0.398-0.354,0.763-0.584,1.088c-0.229,0.325-0.515,0.589-0.854,0.792
	c-0.342,0.202-0.758,0.304-1.248,0.304c-0.246,0-0.443-0.014-0.593-0.04c-0.15-0.025-0.294-0.051-0.433-0.07L823.255,607.433z"/>
</svg>
