<?xml version="1.0" encoding="UTF-8" standalone="no"?>
<svg width="5267px" height="1873px" viewBox="0 0 5267 1873" version="1.1" xmlns="http://www.w3.org/2000/svg" xmlns:xlink="http://www.w3.org/1999/xlink" xmlns:sketch="http://www.bohemiancoding.com/sketch/ns">
    <!-- Generator: Sketch 3.3.1 (12005) - http://www.bohemiancoding.com/sketch -->
    <title>outlines-frage</title>
    <desc>Created with Sketch.</desc>
    <defs>
        <path id="path-1" d="M0,0.00475252332 L1899,0.00475252332 L1899,1512.03909 L0,1512.03909 L0,0.00475252332 Z"></path>
    </defs>
    <g id="Page-1" stroke="none" stroke-width="1" fill="none" fill-rule="evenodd" sketch:type="MSPage">
        <g id="PE" sketch:type="MSLayerGroup" transform="translate(2.000000, 0.000000)">
            <g id="icon-01" transform="translate(0.000000, 1270.000000)" stroke-width="4" stroke="#000000" sketch:type="MSShapeGroup">
                <g id="Group">
                    <path d="M117.663,0 L40.338,0 L36.068,41.327 L121.933,41.327 L117.663,0 Z" id="Shape"></path>
                    <path d="M121.933,195.327 L36.068,195.327 L40.338,236.654 L117.663,236.654 L121.933,195.327 Z" id="Shape"></path>
                    <g transform="translate(0.000000, 41.000000)">
                        <path d="M2,17.827 C2,8.202 9.875,0.327 19.5,0.327 L138.5,0.327 C148.125,0.327 156,8.202 156,17.827 L156,136.827 C156,146.452 148.125,154.327 138.5,154.327 L19.5,154.327 C9.875,154.327 2,146.452 2,136.827 L2,17.827 L2,17.827 Z" id="Shape"></path>
                        <g transform="translate(0.000000, 81.000000)" id="Rectangle-path">
                            <rect x="0" y="0.328" width="2" height="14.999"></rect>
                            <rect x="0" y="31.328" width="2" height="14.999"></rect>
                        </g>
                        <rect id="Rectangle-path" fill="#DD1166" x="20.499" y="18.827" width="117" height="117"></rect>
                        <rect id="Rectangle-path" x="156" y="97.327" width="2" height="30"></rect>
                    </g>
                </g>
            </g>
            <g id="icon-02" transform="translate(329.000000, 1048.000000)" stroke-width="4" stroke="#000000" sketch:type="MSShapeGroup">
                <g id="Group">
                    <path d="M219,429.333 C219,448.583 203.25,464.333 184,464.333 L37,464.333 C17.75,464.333 2,448.583 2,429.333 L2,37 C2,17.75 17.75,2 37,2 L184,2 C203.25,2 219,17.75 219,37 L219,429.333 L219,429.333 Z" id="Shape"></path>
                    <g transform="translate(0.000000, 72.000000)" id="Rectangle-path">
                        <rect x="0" y="76.334" width="2" height="14.999"></rect>
                        <rect x="0" y="38.334" width="2" height="14.999"></rect>
                        <rect x="0" y="0.334" width="2" height="14.999"></rect>
                    </g>
                    <rect id="Rectangle-path" fill="#D5D4CC" x="13.668" y="64" width="193.666" height="338.333"></rect>
                    <path d="M131.002,40 C131.002,41.65 129.65,43 128.002,43 L93,43 C91.35,43 90,41.65 90,40 L90,40 C90,38.35 91.35,37 93,37 L128.002,37 C129.65,37 131.002,38.35 131.002,40 L131.002,40 L131.002,40 Z" id="Shape"></path>
                    <path d="M128.5,433.333 C128.5,443.233 120.4,451.333 110.5,451.333 C100.6,451.333 92.5,443.233 92.5,433.333 C92.5,423.433 100.6,415.333 110.5,415.333 C120.4,415.333 128.5,423.433 128.5,433.333 L128.5,433.333 Z" id="Shape"></path>
                    <path d="M113.5,24 C113.5,25.65 112.15,27 110.5,27 C108.85,27 107.5,25.65 107.5,24 C107.5,22.35 108.85,21 110.5,21 C112.15,21 113.5,22.35 113.5,24 L113.5,24 Z" id="Shape"></path>
                    <rect id="Rectangle-path" x="150" y="0" width="30" height="2"></rect>
                </g>
            </g>
            <g id="icon-03" transform="translate(765.000000, 727.000000)" stroke-width="4" stroke="#000000" sketch:type="MSShapeGroup">
                <g id="Group">
                    <path d="M553.107,750.586 C553.107,769.836 537.357,785.586 518.107,785.586 L35,785.586 C15.75,785.586 0,769.836 0,750.586 L0,37 C0,17.75 15.75,2 35,2 L518.107,2 C537.357,2 553.107,17.75 553.107,37 L553.107,750.586 L553.107,750.586 Z" id="Shape"></path>
                    <rect id="Rectangle-path" fill="#D5D4CC" x="28.5" y="67.997" width="496.107" height="651.592"></rect>
                    <path d="M294.554,752.587 C294.554,762.487 286.454,770.587 276.554,770.587 C266.654,770.587 258.554,762.487 258.554,752.587 C258.554,742.687 266.654,734.587 276.554,734.587 C286.454,734.587 294.554,742.687 294.554,752.587 L294.554,752.587 Z" id="Shape"></path>
                    <path d="M279.554,34.999 C279.554,36.649 278.204,37.999 276.554,37.999 C274.904,37.999 273.554,36.649 273.554,34.999 C273.554,33.349 274.904,31.999 276.554,31.999 C278.204,31.999 279.554,33.349 279.554,34.999 L279.554,34.999 Z" id="Shape"></path>
                    <rect id="Rectangle-path" x="487.108" y="0" width="30" height="2"></rect>
                </g>
            </g>
            <g id="Imported-Layers" transform="translate(1534.000000, 605.329516)" stroke-width="4" sketch:type="MSShapeGroup">
                <path d="M1620.28011,855.89519 C1620.28011,854.864868 1619.43737,854.019406 1618.40433,854.019406 L944.252928,853.837265 C942.154224,864.420494 932.816081,872.396654 921.615747,872.396654 L699.381535,872.396654 C688.1812,872.396654 678.845776,864.420494 676.741635,853.837265 L2.59567127,854.019406 C1.56534923,854.019406 0.717168549,854.864868 0.717168549,855.89519 L0.717168549,879.054329 C0.717168549,880.087369 1.79914262,881.71033 1.79914262,881.71033 C1.79914262,881.71033 20.2361982,901.550146 76.2242785,901.550146 L1544.75397,901.550146 C1600.74749,901.550146 1619.17911,881.71033 1619.17911,881.71033 C1619.86146,881.025261 1620.28011,880.087369 1620.28011,879.054329 L1620.28011,855.89519 L1620.28011,855.89519 Z" id="Stroke-1" stroke="#231F1F"></path>
                <path d="M1464.5835,853.223149 L1464.5835,43.8059598 C1464.5835,20.0487453 1445.15146,0.61670849 1421.39153,0.61670849 L199.606294,0.61670849 C175.851798,0.61670849 156.417043,20.0487453 156.417043,43.8059598 L156.417043,853.223149 L1464.5835,853.223149 Z" id="Path" stroke="#000000"></path>
                <path d="M1388.68764,791.428294 L1388.68764,798.056064 L233.321476,798.056064 L233.321476,791.428294 L233.321476,76.6376202 L1388.68764,76.6376202 L1388.68764,791.428294 L1388.68764,791.428294 Z" id="Stroke-3" stroke="#000000" fill="#D5D4CC"></path>
            </g>
            <g id="Imported-Layers" transform="translate(3365.803000, 0.295175)">
                <path d="M754.912238,1304.34995 C751.750223,1343.41414 751.094179,1423.37175 748.744831,1443.58501 C745.600547,1470.61876 738.053082,1478.16623 719.193286,1483.1959 C703.563474,1487.35971 682.392748,1492.14411 673.568656,1494.41071 C664.744565,1496.68322 661.975585,1498.21695 661.975585,1499.96345 C662.407038,1502.80926 712.653529,1509.08305 737.148805,1509.08305 L1161.85474,1509.08305 C1186.34411,1509.08305 1236.5906,1502.80926 1236.97181,1500.4806 C1237.02796,1498.21695 1234.25603,1496.68322 1225.43489,1494.41071 C1216.60784,1492.14411 1195.43712,1487.35971 1179.8073,1483.1959 C1160.94751,1478.16623 1153.40595,1470.61876 1150.25872,1443.58501 C1147.90937,1423.37175 1147.25332,1343.41414 1144.0854,1304.34995" id="Stroke-1" stroke="#231F1F" stroke-width="4" sketch:type="MSShapeGroup"></path>
                <mask id="mask-2" sketch:name="Clip 4" fill="white">
                    <use xlink:href="#path-1"></use>
                </mask>
                <g id="Clip-4"></g>
                <path d="M1815.81536,1049.18507 L83.1846435,1049.18507 L83.1846435,83.189396 L1815.81536,83.189396 L1815.81536,1049.18507 Z" id="Stroke-3" stroke="#231F1F" stroke-width="4" fill="#D5D4CC" sketch:type="MSShapeGroup" mask="url(#mask-2)"></path>
                <path d="M1853.37833,2.959907 L45.6216749,2.959907 C22.0927349,2.959907 2.95515448,22.1004426 2.95515448,45.6264274 L2.95515448,1261.68136 C2.95515448,1285.20735 22.0927349,1304.35084 45.6216749,1304.35084 L761.540354,1304.35084 L1137.45965,1304.35084 L1853.37833,1304.35084 C1876.90727,1304.35084 1896.04485,1285.20735 1896.04485,1261.68136 L1896.04485,45.6264274 C1896.04485,22.1004426 1876.90727,2.959907 1853.37833,2.959907 L1853.37833,2.959907 Z" id="Path" stroke="#231F1F" stroke-width="4" sketch:type="MSShapeGroup" mask="url(#mask-2)"></path>
            </g>
            <path d="M5115,1866.33333 L5264,1767 L5115,1667.66667 L5115,1667 L0,1667 L0,1867 L5115,1867 L5115,1866.33333 Z" id="Triangle-1" fill="#DD1166" sketch:type="MSShapeGroup"></path>
            <text id="Progressive-Enhancem" sketch:type="MSTextLayer" font-family="Myriad Pro" font-size="144" font-weight="526" fill="#FFFFFF">
                <tspan x="1827" y="1808">Progressive Enhancement</tspan>
            </text>
        </g>
    </g>
</svg>