<?xml version="1.0" encoding="utf-8"?>
<!-- Generator: Adobe Illustrator 16.0.4, SVG Export Plug-In . SVG Version: 6.00 Build 0)  -->
<!DOCTYPE svg PUBLIC "-//W3C//DTD SVG 1.1//EN" "http://www.w3.org/Graphics/SVG/1.1/DTD/svg11.dtd">
<svg version="1.1" id="Ebene_1" xmlns="http://www.w3.org/2000/svg" xmlns:xlink="http://www.w3.org/1999/xlink" x="0px" y="0px"
	 width="789px" height="556px" viewBox="0 0 789 556" enable-background="new 0 0 789 556" xml:space="preserve">
<g>
	<path fill="none" stroke="#000000" stroke-width="2" stroke-miterlimit="10" d="M751.586,1c19.25,0,35,15.75,35,35v483.107
		c0,19.25-15.75,35-35,35H38c-19.25,0-35-15.75-35-35V36C3,16.75,18.75,1,38,1H751.586z"/>
	
		<rect x="68.997" y="29.5" fill="none" stroke="#000000" stroke-width="2" stroke-miterlimit="10" width="651.592" height="496.107"/>
	<path fill="none" stroke="#000000" stroke-width="2" stroke-miterlimit="10" d="M753.587,259.554c9.9,0,18,8.1,18,18s-8.1,18-18,18
		s-18-8.1-18-18S743.687,259.554,753.587,259.554z"/>
	<path fill="none" stroke="#000000" stroke-width="2" stroke-miterlimit="10" d="M35.999,274.554c1.65,0,3,1.35,3,3s-1.35,3-3,3
		s-3-1.35-3-3S34.349,274.554,35.999,274.554z"/>
	<rect x="1" y="36.999" fill="none" stroke="#000000" stroke-width="2" stroke-miterlimit="10" width="2" height="30"/>
</g>
</svg>
