<?xml version="1.0" encoding="utf-8"?>
<!-- Generator: Adobe Illustrator 16.0.4, SVG Export Plug-In . SVG Version: 6.00 Build 0)  -->
<!DOCTYPE svg PUBLIC "-//W3C//DTD SVG 1.1//EN" "http://www.w3.org/Graphics/SVG/1.1/DTD/svg11.dtd">
<svg version="1.1" id="Ebene_1" xmlns="http://www.w3.org/2000/svg" xmlns:xlink="http://www.w3.org/1999/xlink" x="0px" y="0px"
	 width="221px" height="467px" viewBox="0 0 221 467" enable-background="new 0 0 221 467" xml:space="preserve">
<g>
	<path fill="none" stroke="#000000" stroke-width="2" stroke-miterlimit="10" d="M220,430.333c0,19.25-15.75,35-35,35H38
		c-19.25,0-35-15.75-35-35V38C3,18.75,18.75,3,38,3h147c19.25,0,35,15.75,35,35V430.333z"/>
	<g>
		<rect x="1" y="149.334" fill="none" stroke="#000000" stroke-width="2" stroke-miterlimit="10" width="2" height="14.999"/>
		<rect x="1" y="111.334" fill="none" stroke="#000000" stroke-width="2" stroke-miterlimit="10" width="2" height="14.999"/>
		<rect x="1" y="73.334" fill="none" stroke="#000000" stroke-width="2" stroke-miterlimit="10" width="2" height="14.999"/>
	</g>
	<rect x="14.668" y="65" fill="none" stroke="#000000" stroke-width="2" stroke-miterlimit="10" width="193.666" height="338.333"/>
	<path fill="none" stroke="#000000" stroke-width="2" stroke-miterlimit="10" d="M132.002,41c0,1.65-1.352,3-3,3H94
		c-1.65,0-3-1.35-3-3l0,0c0-1.65,1.35-3,3-3h35.002C130.65,38,132.002,39.35,132.002,41L132.002,41z"/>
	<path fill="none" stroke="#000000" stroke-width="2" stroke-miterlimit="10" d="M129.5,434.333c0,9.9-8.1,18-18,18s-18-8.1-18-18
		s8.1-18,18-18S129.5,424.433,129.5,434.333z"/>
	<path fill="none" stroke="#000000" stroke-width="2" stroke-miterlimit="10" d="M114.5,25c0,1.65-1.35,3-3,3s-3-1.35-3-3
		s1.35-3,3-3S114.5,23.35,114.5,25z"/>
	<rect x="151" y="1" fill="none" stroke="#000000" stroke-width="2" stroke-miterlimit="10" width="30" height="2"/>
</g>
</svg>
