<?xml version="1.0" encoding="utf-8"?>
<!-- Generator: Adobe Illustrator 16.0.4, SVG Export Plug-In . SVG Version: 6.00 Build 0)  -->
<!DOCTYPE svg PUBLIC "-//W3C//DTD SVG 1.1//EN" "http://www.w3.org/Graphics/SVG/1.1/DTD/svg11.dtd">
<svg version="1.1" id="Ebene_1" xmlns="http://www.w3.org/2000/svg" xmlns:xlink="http://www.w3.org/1999/xlink" x="0px" y="0px"
	 width="160px" height="239px" viewBox="0 0 160 239" enable-background="new 0 0 160 239" xml:space="preserve">
<g>
	<polygon fill="none" stroke="#000000" stroke-width="2" stroke-miterlimit="10" points="118.663,1 41.338,1 37.068,42.327 
		122.933,42.327 	"/>
	<polygon fill="none" stroke="#000000" stroke-width="2" stroke-miterlimit="10" points="122.933,196.327 37.068,196.327 
		41.338,237.654 118.663,237.654 	"/>
	<g>
		<path fill="none" stroke="#000000" stroke-width="2" stroke-miterlimit="10" d="M3,59.827c0-9.625,7.875-17.5,17.5-17.5h119
			c9.625,0,17.5,7.875,17.5,17.5v119c0,9.625-7.875,17.5-17.5,17.5h-119c-9.625,0-17.5-7.875-17.5-17.5V59.827z"/>
		<g>
			<rect x="1" y="123.328" fill="none" stroke="#000000" stroke-width="2" stroke-miterlimit="10" width="2" height="14.999"/>
			<rect x="1" y="154.328" fill="none" stroke="#000000" stroke-width="2" stroke-miterlimit="10" width="2" height="14.999"/>
		</g>
		<rect x="21.499" y="60.827" fill="none" stroke="#000000" stroke-width="2" stroke-miterlimit="10" width="117" height="117"/>
		<rect x="157" y="139.327" fill="none" stroke="#000000" stroke-width="2" stroke-miterlimit="10" width="2" height="30"/>
	</g>
</g>
</svg>
