<?xml version="1.0" encoding="utf-8"?>
<!-- Generator: Adobe Illustrator 16.0.4, SVG Export Plug-In . SVG Version: 6.00 Build 0)  -->
<!DOCTYPE svg PUBLIC "-//W3C//DTD SVG 1.1//EN" "http://www.w3.org/Graphics/SVG/1.1/DTD/svg11.dtd">
<svg version="1.1" id="Ebene_1" xmlns="http://www.w3.org/2000/svg" xmlns:xlink="http://www.w3.org/1999/xlink" x="0px" y="0px"
	 width="556px" height="789px" viewBox="0 0 556 789" enable-background="new 0 0 556 789" xml:space="preserve">
<g>
	<path fill="none" stroke="#000000" stroke-width="2" stroke-miterlimit="10" d="M554.107,751.586c0,19.25-15.75,35-35,35H36
		c-19.25,0-35-15.75-35-35V38C1,18.75,16.75,3,36,3h483.107c19.25,0,35,15.75,35,35V751.586z"/>
	
		<rect x="29.5" y="68.997" fill="none" stroke="#000000" stroke-width="2" stroke-miterlimit="10" width="496.107" height="651.592"/>
	<path fill="none" stroke="#000000" stroke-width="2" stroke-miterlimit="10" d="M295.554,753.587c0,9.9-8.1,18-18,18s-18-8.1-18-18
		s8.1-18,18-18S295.554,743.687,295.554,753.587z"/>
	<path fill="none" stroke="#000000" stroke-width="2" stroke-miterlimit="10" d="M280.554,35.999c0,1.65-1.35,3-3,3s-3-1.35-3-3
		s1.35-3,3-3S280.554,34.349,280.554,35.999z"/>
	<rect x="488.108" y="1" fill="none" stroke="#000000" stroke-width="2" stroke-miterlimit="10" width="30" height="2"/>
</g>
</svg>
