<?xml version="1.0" encoding="UTF-8" standalone="no"?>
<svg width="1281px" height="788px" viewBox="0 0 1281 788" version="1.1" xmlns="http://www.w3.org/2000/svg" xmlns:xlink="http://www.w3.org/1999/xlink" xmlns:sketch="http://www.bohemiancoding.com/sketch/ns">
    <!-- Generator: Sketch 3.3.1 (12005) - http://www.bohemiancoding.com/sketch -->
    <title>outlines-frage</title>
    <desc>Created with Sketch.</desc>
    <defs></defs>
    <g id="Page-1" stroke="none" stroke-width="1" fill="none" fill-rule="evenodd" sketch:type="MSPage">
        <g id="icon-01" sketch:type="MSLayerGroup" transform="translate(1.000000, 282.000000)" stroke-width="2" stroke="#000000">
            <g id="Group" sketch:type="MSShapeGroup">
                <path d="M117.663,0 L40.338,0 L36.068,41.327 L121.933,41.327 L117.663,0 Z" id="Shape"></path>
                <path d="M121.933,195.327 L36.068,195.327 L40.338,236.654 L117.663,236.654 L121.933,195.327 Z" id="Shape"></path>
                <g transform="translate(0.000000, 41.000000)">
                    <path d="M2,17.827 C2,8.202 9.875,0.327 19.5,0.327 L138.5,0.327 C148.125,0.327 156,8.202 156,17.827 L156,136.827 C156,146.452 148.125,154.327 138.5,154.327 L19.5,154.327 C9.875,154.327 2,146.452 2,136.827 L2,17.827 L2,17.827 Z" id="Shape"></path>
                    <g transform="translate(0.000000, 81.000000)" id="Rectangle-path">
                        <rect x="0" y="0.328" width="2" height="14.999"></rect>
                        <rect x="0" y="31.328" width="2" height="14.999"></rect>
                    </g>
                    <rect id="Rectangle-path" fill="#DD1166" x="20.499" y="18.827" width="117" height="117"></rect>
                    <rect id="Rectangle-path" x="156" y="97.327" width="2" height="30"></rect>
                </g>
            </g>
        </g>
        <g id="icon-02" sketch:type="MSLayerGroup" transform="translate(320.000000, 162.000000)">
            <g id="Group" sketch:type="MSShapeGroup">
                <path d="M219,429.333 C219,448.583 203.25,464.333 184,464.333 L37,464.333 C17.75,464.333 2,448.583 2,429.333 L2,37 C2,17.75 17.75,2 37,2 L184,2 C203.25,2 219,17.75 219,37 L219,429.333 L219,429.333 Z" id="Shape" stroke="#000000" stroke-width="2"></path>
                <g transform="translate(0.000000, 72.000000)" stroke="#000000" id="Rectangle-path" stroke-width="2">
                    <rect x="0" y="76.334" width="2" height="14.999"></rect>
                    <rect x="0" y="38.334" width="2" height="14.999"></rect>
                    <rect x="0" y="0.334" width="2" height="14.999"></rect>
                </g>
                <rect id="Rectangle-path" stroke="#000000" stroke-width="2" fill="#DD1166" x="13.668" y="64" width="193.666" height="338.333"></rect>
                <path d="M111.98,231.5185 L111.916,230.1745 C111.788,227.1025 112.812,224.4785 115.308,221.5345 C118.06,218.3985 120.876,215.1985 120.876,210.5905 C120.876,205.4705 117.228,200.8625 109.292,200.8625 C105.26,200.8625 101.548,202.0145 99.244,203.4865 L101.164,209.1185 C102.764,207.9025 105.324,207.1985 107.564,207.1985 C111.148,207.2625 112.812,209.0545 112.812,211.7425 C112.812,214.2385 111.212,216.4785 108.78,219.4225 C105.772,223.0065 104.62,226.5265 104.94,229.9185 L105.068,231.5185 L111.98,231.5185 Z M108.332,245.4705 C111.276,245.4705 113.196,243.2945 113.196,240.4785 C113.132,237.5345 111.212,235.4865 108.332,235.4865 C105.516,235.4865 103.468,237.5345 103.468,240.4785 C103.468,243.2945 105.452,245.4705 108.268,245.4705 L108.332,245.4705 Z" id="?-copy" fill="#FFFFFF"></path>
                <path d="M131.002,40 C131.002,41.65 129.65,43 128.002,43 L93,43 C91.35,43 90,41.65 90,40 L90,40 C90,38.35 91.35,37 93,37 L128.002,37 C129.65,37 131.002,38.35 131.002,40 L131.002,40 L131.002,40 Z" id="Shape" stroke="#000000" stroke-width="2"></path>
                <path d="M128.5,433.333 C128.5,443.233 120.4,451.333 110.5,451.333 C100.6,451.333 92.5,443.233 92.5,433.333 C92.5,423.433 100.6,415.333 110.5,415.333 C120.4,415.333 128.5,423.433 128.5,433.333 L128.5,433.333 Z" id="Shape" stroke="#000000" stroke-width="2"></path>
                <path d="M113.5,24 C113.5,25.65 112.15,27 110.5,27 C108.85,27 107.5,25.65 107.5,24 C107.5,22.35 108.85,21 110.5,21 C112.15,21 113.5,22.35 113.5,24 L113.5,24 Z" id="Shape" stroke="#000000" stroke-width="2"></path>
                <rect id="Rectangle-path" stroke="#000000" stroke-width="2" x="150" y="0" width="30" height="2"></rect>
            </g>
        </g>
        <g id="icon-03" sketch:type="MSLayerGroup" transform="translate(726.000000, 1.000000)">
            <g id="Group" sketch:type="MSShapeGroup">
                <path d="M553.107,750.586 C553.107,769.836 537.357,785.586 518.107,785.586 L35,785.586 C15.75,785.586 0,769.836 0,750.586 L0,37 C0,17.75 15.75,2 35,2 L518.107,2 C537.357,2 553.107,17.75 553.107,37 L553.107,750.586 L553.107,750.586 Z" id="Shape" stroke="#000000" stroke-width="2"></path>
                <rect id="Rectangle-path" stroke="#000000" stroke-width="2" fill="#DD1166" x="28.5" y="67.997" width="496.107" height="651.592"></rect>
                <path d="M280.162,402.145 L280.098,400.801 C279.97,397.729 280.994,395.105 283.49,392.161 C286.242,389.025 289.058,385.825 289.058,381.217 C289.058,376.097 285.41,371.489 277.474,371.489 C273.442,371.489 269.73,372.641 267.426,374.113 L269.346,379.745 C270.946,378.529 273.506,377.825 275.746,377.825 C279.33,377.889 280.994,379.681 280.994,382.369 C280.994,384.865 279.394,387.105 276.962,390.049 C273.954,393.633 272.802,397.153 273.122,400.545 L273.25,402.145 L280.162,402.145 Z M276.514,416.097 C279.458,416.097 281.378,413.921 281.378,411.105 C281.314,408.161 279.394,406.113 276.514,406.113 C273.698,406.113 271.65,408.161 271.65,411.105 C271.65,413.921 273.634,416.097 276.45,416.097 L276.514,416.097 Z" id="?-copy-2" fill="#FFFFFF"></path>
                <path d="M294.554,752.587 C294.554,762.487 286.454,770.587 276.554,770.587 C266.654,770.587 258.554,762.487 258.554,752.587 C258.554,742.687 266.654,734.587 276.554,734.587 C286.454,734.587 294.554,742.687 294.554,752.587 L294.554,752.587 Z" id="Shape" stroke="#000000" stroke-width="2"></path>
                <path d="M279.554,34.999 C279.554,36.649 278.204,37.999 276.554,37.999 C274.904,37.999 273.554,36.649 273.554,34.999 C273.554,33.349 274.904,31.999 276.554,31.999 C278.204,31.999 279.554,33.349 279.554,34.999 L279.554,34.999 Z" id="Shape" stroke="#000000" stroke-width="2"></path>
                <rect id="Rectangle-path" stroke="#000000" stroke-width="2" x="487.108" y="0" width="30" height="2"></rect>
            </g>
        </g>
        <path d="M81.872,407.752 L81.808,406.408 C81.68,403.336 82.704,400.712 85.2,397.768 C87.952,394.632 90.768,391.432 90.768,386.824 C90.768,381.704 87.12,377.096 79.184,377.096 C75.152,377.096 71.44,378.248 69.136,379.72 L71.056,385.352 C72.656,384.136 75.216,383.432 77.456,383.432 C81.04,383.496 82.704,385.288 82.704,387.976 C82.704,390.472 81.104,392.712 78.672,395.656 C75.664,399.24 74.512,402.76 74.832,406.152 L74.96,407.752 L81.872,407.752 Z M78.224,421.704 C81.168,421.704 83.088,419.528 83.088,416.712 C83.024,413.768 81.104,411.72 78.224,411.72 C75.408,411.72 73.36,413.768 73.36,416.712 C73.36,419.528 75.344,421.704 78.16,421.704 L78.224,421.704 Z" id="?" fill="#FFFFFF" sketch:type="MSShapeGroup"></path>
    </g>
</svg>