<?xml version="1.0" encoding="UTF-8" standalone="no"?>
<svg width="1281px" height="788px" viewBox="0 0 1281 788" version="1.1" xmlns="http://www.w3.org/2000/svg" xmlns:xlink="http://www.w3.org/1999/xlink" xmlns:sketch="http://www.bohemiancoding.com/sketch/ns">
    <!-- Generator: Sketch 3.3.1 (12005) - http://www.bohemiancoding.com/sketch -->
    <title>Slice 1</title>
    <desc>Created with Sketch.</desc>
    <defs></defs>
    <g id="Page-1" stroke="none" stroke-width="1" fill="none" fill-rule="evenodd" sketch:type="MSPage">
        <g id="outlines-frage-copy" sketch:type="MSLayerGroup" transform="translate(320.000000, 162.000000)" stroke-width="2" stroke="#000000">
            <g id="Page-1" sketch:type="MSShapeGroup">
                <g id="icon-02">
                    <g id="Group">
                        <path d="M219,429.333 C219,448.583 203.25,464.333 184,464.333 L37,464.333 C17.75,464.333 2,448.583 2,429.333 L2,37 C2,17.75 17.75,2 37,2 L184,2 C203.25,2 219,17.75 219,37 L219,429.333 L219,429.333 Z" id="Shape"></path>
                        <g id="Rectangle-path" transform="translate(0.000000, 72.000000)">
                            <rect x="0" y="76.334" width="2" height="14.999"></rect>
                            <rect x="0" y="38.334" width="2" height="14.999"></rect>
                            <rect x="0" y="0.334" width="2" height="14.999"></rect>
                        </g>
                        <rect id="Rectangle-path" fill="#DD1166" x="13.668" y="64" width="193.666" height="338.333"></rect>
                        <path d="M131.002,40 C131.002,41.65 129.65,43 128.002,43 L93,43 C91.35,43 90,41.65 90,40 L90,40 C90,38.35 91.35,37 93,37 L128.002,37 C129.65,37 131.002,38.35 131.002,40 L131.002,40 L131.002,40 Z" id="Shape"></path>
                        <path d="M128.5,433.333 C128.5,443.233 120.4,451.333 110.5,451.333 C100.6,451.333 92.5,443.233 92.5,433.333 C92.5,423.433 100.6,415.333 110.5,415.333 C120.4,415.333 128.5,423.433 128.5,433.333 L128.5,433.333 L128.5,433.333 Z" id="Shape"></path>
                        <path d="M113.5,24 C113.5,25.65 112.15,27 110.5,27 C108.85,27 107.5,25.65 107.5,24 C107.5,22.35 108.85,21 110.5,21 C112.15,21 113.5,22.35 113.5,24 L113.5,24 L113.5,24 Z" id="Shape"></path>
                        <rect id="Rectangle-path" x="150" y="0" width="30" height="2"></rect>
                    </g>
                </g>
            </g>
        </g>
    </g>
</svg>