<?xml version="1.0" encoding="UTF-8" standalone="no"?>
<svg width="200px" height="150px" viewBox="0 0 200 150" version="1.1" xmlns="http://www.w3.org/2000/svg" xmlns:xlink="http://www.w3.org/1999/xlink" xmlns:sketch="http://www.bohemiancoding.com/sketch/ns">
    <!-- Generator: Sketch 3.3.1 (12005) - http://www.bohemiancoding.com/sketch -->
    <title>sharing</title>
    <desc>Created with Sketch.</desc>
    <defs></defs>
    <g id="Page-1" stroke="none" stroke-width="1" fill="none" fill-rule="evenodd" sketch:type="MSPage">
        <g id="sharing" sketch:type="MSArtboardGroup">
            <path d="M47,85 L47,111 L94,111 L94,111 L94,85 L47,85 Z M47,32 L47,18 L54,18 L54,18 L54,32 L47,32 Z M172,86 L172,111 L155,111 L155,86 L172,86 L172,86 Z M172,38 L172,18 L128,18 L128,38 L172,38 L172,38 Z" id="Rectangle-106" fill="#DD1166" sketch:type="MSShapeGroup"></path>
            <g id="Group" sketch:type="MSLayerGroup">
                <rect id="Rectangle-path" sketch:type="MSShapeGroup" x="0" y="0.225" width="200" height="143"></rect>
                <path d="M4.407,86.578 L91.517,86.578 L91.517,134.272 L4.407,134.272 L4.407,86.578 L4.407,86.578 Z M-1.42108547e-14,138.675 L95.924,138.675 L95.924,82.176 L-1.42108547e-14,82.176 L-1.42108547e-14,138.675 L-1.42108547e-14,138.675 Z" id="Shape" fill="#333333" sketch:type="MSShapeGroup"></path>
                <rect id="Rectangle-path" sketch:type="MSShapeGroup" x="0" y="0.225" width="200" height="143"></rect>
                <path d="M33.052,139.556 L25.56,143.225 L70.364,143.225 L62.872,139.556 L33.052,139.556 Z" id="Shape" fill="#333333" sketch:type="MSShapeGroup"></path>
                <rect id="Rectangle-path" sketch:type="MSShapeGroup" x="0" y="0.225" width="200" height="143"></rect>
                <path d="M127.433,39.113 L183.694,39.113 L183.694,0.224 L127.433,0.224 L127.433,39.113 L127.433,39.113 Z M179.288,34.712 L131.84,34.712 L131.84,4.628 L179.288,4.628 L179.288,34.712 L179.288,34.712 Z" id="Shape" fill="#333333" sketch:type="MSShapeGroup"></path>
                <rect id="Rectangle-path" sketch:type="MSShapeGroup" x="0" y="0.225" width="200" height="143"></rect>
                <path d="M183.695,39.994 L127.434,39.994 L111.128,43.664 L200,43.664 L183.695,39.994 Z" id="Shape" fill="#333333" sketch:type="MSShapeGroup"></path>
                <rect id="Rectangle-path" sketch:type="MSShapeGroup" x="0" y="0.225" width="200" height="143"></rect>
                <path d="M159.905,44.544 L159.905,45.277 L151.223,45.277 L151.223,44.544 L111.128,44.544 L111.128,48.065 L200,48.065 L200,44.544 L159.905,44.544 Z" id="Shape" fill="#333333" sketch:type="MSShapeGroup"></path>
                <rect id="Rectangle-path" sketch:type="MSShapeGroup" x="0" y="0.225" width="200" height="143"></rect>
                <rect id="Rectangle-path" sketch:type="MSShapeGroup" x="0" y="0.225" width="200" height="143"></rect>
                <path d="M152.405,140.803 L191.334,140.803 L191.334,84.597 L152.405,84.597 L152.405,140.803 L152.405,140.803 Z M173.118,138.602 C173.118,139.291 172.558,139.85 171.869,139.85 C171.18,139.85 170.621,139.291 170.621,138.602 C170.621,137.914 171.18,137.355 171.869,137.355 C172.558,137.355 173.118,137.912 173.118,138.602 L173.118,138.602 Z M186.927,136.4 L156.813,136.4 L156.813,89 L186.927,89 L186.927,136.4 L186.927,136.4 Z" id="Shape" fill="#333333" sketch:type="MSShapeGroup"></path>
                <rect id="Rectangle-path" sketch:type="MSShapeGroup" x="0" y="0.225" width="200" height="143"></rect>
                <path d="M38.34,34.712 L54.939,34.712 L54.939,4.628 L38.34,4.628 L38.34,34.712 L38.34,34.712 Z M46.64,33.795 C45.952,33.795 45.391,33.235 45.391,32.547 C45.391,31.858 45.951,31.299 46.64,31.299 C47.33,31.299 47.889,31.858 47.889,32.547 C47.889,33.235 47.33,33.795 46.64,33.795 L46.64,33.795 Z M53.177,30.309 L40.103,30.309 L40.103,9.03 L53.177,9.03 L53.177,30.309 L53.177,30.309 Z" id="Shape" fill="#333333" sketch:type="MSShapeGroup"></path>
                <rect id="Rectangle-path" sketch:type="MSShapeGroup" x="0" y="0.225" width="200" height="143"></rect>
                <rect id="Rectangle-path" sketch:type="MSShapeGroup" x="0" y="0.225" width="200" height="143"></rect>
                <rect id="Rectangle-path" sketch:type="MSShapeGroup" x="0" y="0.225" width="200" height="143"></rect>
                <rect id="Rectangle-path" sketch:type="MSShapeGroup" x="0" y="0.225" width="200" height="143"></rect>
                <rect id="Rectangle-path" sketch:type="MSShapeGroup" x="0" y="0.225" width="200" height="143"></rect>
                <rect id="Rectangle-path" sketch:type="MSShapeGroup" x="0" y="0.225" width="200" height="143"></rect>
                <rect id="Rectangle-path" sketch:type="MSShapeGroup" x="0" y="0.225" width="200" height="143"></rect>
                <rect id="Rectangle-path" sketch:type="MSShapeGroup" x="0" y="0.225" width="200" height="143"></rect>
                <rect id="Rectangle-path" sketch:type="MSShapeGroup" x="0" y="0.225" width="200" height="143"></rect>
                <rect id="Rectangle-path" sketch:type="MSShapeGroup" x="0" y="0.225" width="200" height="143"></rect>
            </g>
        </g>
    </g>
</svg>