<?xml version="1.0" encoding="UTF-8" standalone="no"?>
<svg width="200px" height="150px" viewBox="0 0 200 150" version="1.1" xmlns="http://www.w3.org/2000/svg" xmlns:xlink="http://www.w3.org/1999/xlink" xmlns:sketch="http://www.bohemiancoding.com/sketch/ns">
    <!-- Generator: Sketch 3.3.1 (12005) - http://www.bohemiancoding.com/sketch -->
    <title>shifting</title>
    <desc>Created with Sketch.</desc>
    <defs></defs>
    <g id="Page-1" stroke="none" stroke-width="1" fill="none" fill-rule="evenodd" sketch:type="MSPage">
        <g id="shifting" sketch:type="MSArtboardGroup">
            <g id="Group" sketch:type="MSLayerGroup">
                <rect id="Rectangle-path" sketch:type="MSShapeGroup" x="0" y="0.225" width="200" height="143"></rect>
                <path d="M4.407,86.578 L91.516,86.578 L91.516,134.272 L4.407,134.272 L4.407,86.578 L4.407,86.578 Z M0,138.675 L95.923,138.675 L95.923,82.176 L0,82.176 L0,138.675 L0,138.675 Z" id="Shape" fill="#333333" sketch:type="MSShapeGroup"></path>
                <rect id="Rectangle-path" sketch:type="MSShapeGroup" x="0" y="0.225" width="200" height="143"></rect>
                <path d="M33.051,139.556 L25.56,143.225 L70.363,143.225 L62.872,139.556 L33.051,139.556 Z" id="Shape" fill="#333333" sketch:type="MSShapeGroup"></path>
                <rect id="Rectangle-path" sketch:type="MSShapeGroup" x="0" y="0.225" width="200" height="143"></rect>
                <path d="M127.433,39.113 L183.694,39.113 L183.694,0.224 L127.433,0.224 L127.433,39.113 L127.433,39.113 Z M179.288,34.712 L131.84,34.712 L131.84,4.627 L179.288,4.627 L179.288,34.712 L179.288,34.712 Z" id="Shape" fill="#333333" sketch:type="MSShapeGroup"></path>
                <rect id="Rectangle-path" sketch:type="MSShapeGroup" x="0" y="0.225" width="200" height="143"></rect>
                <path d="M183.694,39.994 L127.433,39.994 L111.128,43.664 L200,43.664 L183.694,39.994 Z" id="Shape" fill="#333333" sketch:type="MSShapeGroup"></path>
                <rect id="Rectangle-path" sketch:type="MSShapeGroup" x="0" y="0.225" width="200" height="143"></rect>
                <path d="M159.904,44.544 L159.904,45.277 L151.223,45.277 L151.223,44.544 L111.127,44.544 L111.127,48.065 L200,48.065 L200,44.544 L159.904,44.544 Z" id="Shape" fill="#333333" sketch:type="MSShapeGroup"></path>
                <rect id="Rectangle-path" sketch:type="MSShapeGroup" x="0" y="0.225" width="200" height="143"></rect>
                <rect id="Rectangle-path" sketch:type="MSShapeGroup" x="0" y="0.225" width="200" height="143"></rect>
                <path d="M152.405,140.803 L191.334,140.803 L191.334,84.597 L152.405,84.597 L152.405,140.803 L152.405,140.803 Z M173.118,138.602 C173.118,139.291 172.557,139.85 171.869,139.85 C171.18,139.85 170.62,139.291 170.62,138.602 C170.62,137.914 171.179,137.355 171.869,137.355 C172.559,137.354 173.118,137.912 173.118,138.602 L173.118,138.602 Z M186.926,136.4 L156.812,136.4 L156.812,89 L186.926,89 L186.926,136.4 L186.926,136.4 Z" id="Shape" fill="#333333" sketch:type="MSShapeGroup"></path>
                <rect id="Rectangle-path" sketch:type="MSShapeGroup" x="0" y="0.225" width="200" height="143"></rect>
                <path d="M38.34,34.712 L54.939,34.712 L54.939,4.627 L38.34,4.627 L38.34,34.712 L38.34,34.712 Z M46.64,33.795 C45.952,33.795 45.391,33.235 45.391,32.547 C45.391,31.858 45.952,31.299 46.64,31.299 C47.329,31.299 47.889,31.858 47.889,32.547 C47.889,33.235 47.329,33.795 46.64,33.795 L46.64,33.795 Z M53.177,30.309 L40.103,30.309 L40.103,9.03 L53.177,9.03 L53.177,30.309 L53.177,30.309 Z" id="Shape" fill="#333333" sketch:type="MSShapeGroup"></path>
                <rect id="Rectangle-path" sketch:type="MSShapeGroup" x="0" y="0.225" width="200" height="143"></rect>
                <rect id="Rectangle-path" fill="#DD1166" sketch:type="MSShapeGroup" x="166.845" y="54.963" width="2.644" height="19.699"></rect>
                <rect id="Rectangle-path" sketch:type="MSShapeGroup" x="0" y="0.225" width="200" height="143"></rect>
                <path d="M163.684,69.4 L168.167,73.882 L172.649,69.4 L172.649,73.203 L168.167,77.682 L163.684,73.203 L163.684,69.4 Z" id="Shape" fill="#DD1166" sketch:type="MSShapeGroup"></path>
                <rect id="Rectangle-path" sketch:type="MSShapeGroup" x="0" y="0.225" width="200" height="143"></rect>
                <rect id="Rectangle-path" fill="#DD1166" sketch:type="MSShapeGroup" transform="translate(112.190828, 67.567183) rotate(224.967588) translate(-112.190828, -67.567183) " x="110.86934" y="53.2568182" width="2.64297508" height="28.6207301"></rect>
                <rect id="Rectangle-path" sketch:type="MSShapeGroup" x="0" y="0.225" width="200" height="143"></rect>
                <path d="M102.626,70.797 L102.624,77.133 L108.966,77.13 L106.274,79.818 L99.935,79.818 L99.935,73.485 L102.626,70.797 Z" id="Shape" fill="#DD1166" sketch:type="MSShapeGroup"></path>
                <rect id="Rectangle-path" sketch:type="MSShapeGroup" x="0" y="0.225" width="200" height="143"></rect>
                <rect id="Rectangle-path" fill="#DD1166" sketch:type="MSShapeGroup" x="74.846" y="18.349" width="28.635" height="2.642"></rect>
                <rect id="Rectangle-path" sketch:type="MSShapeGroup" x="0" y="0.225" width="200" height="143"></rect>
                <path d="M80.112,15.191 L75.627,19.67 L80.112,24.147 L76.306,24.147 L71.823,19.67 L76.306,15.191 L80.112,15.191 Z" id="Shape" fill="#DD1166" sketch:type="MSShapeGroup"></path>
            </g>
        </g>
    </g>
</svg>